<?xml version="1.0" encoding="UTF-8"?><svg id="a" xmlns="http://www.w3.org/2000/svg" viewBox="0 0 602.95 807.12"><defs><style>.b{fill:#fff;stroke-width:0px;}.c{opacity:.25;}</style></defs><g class="c"><path class="b" d="m602.95,272.13c0,72.64-.13,132.41-.22,176.97-.04,18.51-.07,34.1-.09,46.62-.01,12.29-.05,41.06-13.76,74.06-13.81,33.25-37.25,61.28-75.98,90.86-33.72,25.76-68.35,51.28-102.91,75.87-1.15.82-6.22,4.7-10.69,8.12-78.46,60.09-86.26,62.49-97.77,62.49-5.7,0-11.12-1.72-15.67-4.97-14.34-10.22-28.7-20.43-43.05-30.64-43.79-31.14-89.08-63.33-133.31-95.65C61,640.42.62,596.3.51,507.07c-.07-56.71-.1-117.12-.11-190.11,0-58.4,0-116.81.02-175.21v-14.88c0-9.73-.1-19.62-.21-29.19C-.04,73.79-.31,49.08.98,24.54L2.26,0h600.09l.1,25.79c.38,92.85.49,175.68.49,246.34M7.6,5.63l-1,19.21c-1.28,24.36-1.01,48.98-.76,72.79.1,9.58.21,19.49.21,29.25v14.88c-.02,58.4-.03,116.8-.02,175.21,0,72.99.04,133.4.11,190.11.1,86.38,59.21,129.56,106.7,164.25,44.2,32.29,89.47,64.48,133.25,95.6,14.36,10.21,28.72,20.42,43.06,30.64,3.59,2.57,7.88,3.93,12.4,3.93,9.64,0,17.67-2.61,94.34-61.33,5.81-4.45,9.7-7.42,10.85-8.24,34.51-24.55,69.09-50.04,102.76-75.76,37.9-28.95,60.78-56.26,74.2-88.55,13.28-31.97,13.31-59.96,13.33-71.91.01-12.52.05-28.11.09-46.63.19-87.89.49-235-.27-423.27l-.08-20.19H7.6Z"/><path class="b" d="m576.56,25.9H26.84c-1.75,33.49-.52,67.42-.52,100.97-.01,63.36-.03,126.72-.02,190.09,0,63.36.03,126.72.11,190.09.09,72.1,44.81,108.77,98.39,147.91,58.3,42.6,117.33,84.19,176.12,126.11,5.27,3.76,86.17-60.03,94.08-65.66,34.49-24.53,68.57-49.65,102.2-75.35,31.31-23.92,54.73-48.79,67.78-80.22,11.77-28.34,11.76-53.18,11.78-64.26.08-70.12.74-241.14-.18-469.69ZM78.01,567.95c-15.87-21.34-14.62-44.81-14.04-51.47v-237.41c11.75,5.47,23.51,10.93,35.26,16.4v276.56c-.1,1.28-.12,2.68,0,4.19.47,5.96,2.88,10.53,4.72,13.32-6.44-3.21-17.07-9.66-25.94-21.58Zm93.02,73.59c-11.83-8.24-23.66-16.48-35.5-24.73v-304.66c11.84,5.44,23.68,10.88,35.51,16.32,0,104.36-.01,208.71-.02,313.07Zm20.93-349.69c-37.82-17.62-75.65-35.23-113.47-52.85-2.17-.92-7.01-3.31-10.83-8.62-4.45-6.19-4.8-12.54-4.82-14.84.02-50.48.05-100.95.07-151.43,14.47,0,28.95,0,43.42,0,0,46.89,0,93.77,0,140.66,14.32,6.75,28.64,13.5,42.96,20.25V64.15c14.29,0,28.59.01,42.88.02-.07,75.9-.13,151.79-.2,227.69Zm53.33,403.14c-11.81-8.45-23.62-16.9-35.44-25.35v-323.34c11.84,5.44,23.68,10.88,35.51,16.32-.03,110.79-.05,221.57-.08,332.36Zm56.28,40.17c-6.36-4.55-12.46-8.92-18.34-13.13-.01-114.15-.03-228.3-.04-342.46,6.18,2.84,12.36,5.69,18.54,8.53,5.65-2.62,11.29-5.25,16.94-7.87.01,114.26.03,228.52.04,342.78-5.92,4.2-11.08,7.85-17.14,12.15Zm45.43-414.14c-15,7.07-30.19,13.75-45.64,20.75-15.83-7.14-31.55-14.16-47.22-21.3-5.1-2.32-11.4-6.72-15.34-14.46-1.88-3.69-2.61-7.14-2.92-9.53v-65.06c14.56,6.52,29.11,13.04,43.67,19.56v36.75c8.1,3.58,15.01,6.63,21.98,9.71,7.31-3.46,14.17-6.71,20.94-9.91v-61.55c-20.79-9.55-41.41-19.68-62.56-28.54-17.04-7.14-24.49-19.07-24.14-37.27.47-24.34-.2-48.7.23-73.04.07-4.25-.55-13.23,5.28-18.83,2.58-2.48,5.6-3.54,7.65-4.04,35.29.05,70.58.1,105.88.15,1.38.45,3.75,1.44,5.96,3.6,3.44,3.38,4.21,7.42,4.41,8.85v77.36c-14.01-6.26-28.02-12.53-42.03-18.79v-30.82h-42.06v53.32c19.55,9.13,39.95,19.47,60.99,28.25,13.76,5.74,16.6,10.83,18.91,14.64,4.77,7.83,4.69,16.26,4.18,21.09v68.96c.32,4.1.24,11.27-3.82,18.08-4.04,6.78-10.02,10.03-14.36,12.08Zm45.64,348.63c-11.81,8.45-23.62,16.9-35.44,25.35-.03-110.79-.05-221.57-.08-332.36,11.84-5.44,23.68-10.88,35.51-16.32v323.34Zm74.31-52.83c-11.83,8.24-23.66,16.48-35.5,24.73,0-104.36-.01-208.71-.02-313.07,11.84-5.44,23.68-10.88,35.51-16.32v304.66Zm29.86-364.39v-47.2c-15.37,7.05-28.49,13.08-42.78,19.63v47.47c-14.94,6.81-29.88,13.62-44.82,20.43.04-66.76.08-133.51.12-200.27.26-2.99,1.56-13.7,10.44-21.67,4.06-3.65,8.32-5.48,11.23-6.42,35.84-.1,71.67-.2,107.51-.3v142.67c.6,19.79-7.12,27.64-9.83,30-2.91,2.53-6.39,5.18-14.37,8.11-5.34,1.96-10.47,4.49-17.49,7.54Zm27.66,315.53c-8.87,11.92-19.51,18.37-25.94,21.58,1.84-2.78,4.24-7.36,4.72-13.32.12-1.5.1-2.91,0-4.19v-276.56c11.76-5.47,23.51-10.93,35.26-16.4v237.41c.59,6.66,1.84,30.13-14.04,51.47Z"/><path class="b" d="m453.9,177.16c15.05-6.92,28.57-13.14,40.76-18.74v-53.57h-40.76v72.3Z"/></g></svg>