<?xml version="1.0" encoding="UTF-8"?><svg id="a" xmlns="http://www.w3.org/2000/svg" viewBox="0 0 49.17 63.04"><defs><style>.b{fill:#a80;}.b,.c,.d,.e,.f,.g,.h,.i,.j,.k,.l{stroke-width:0px;}.c{fill:#fa0000;}.e{fill:#fc0000;}.f{fill:red;}.g{fill:#7b0000;}.h{fill:#020000;}.i{fill:#e4eff7;}.j{fill:#f30000;}.k{fill:#f50000;}.l{fill:#ffd600;}</style></defs><path class="d" d="m9.23,4.4l.11.04c-.16.32-.24.62-.26.89-.02.35.06.68.23.98.21.37.52.64.94.81.06-.14.08-.25.06-.32s-.09-.24-.24-.5l-.67-1.17.58-1.57c.32-.05.56-.1.73-.15s.35-.14.55-.25l.06-.03.1.07-.2.66c-.31.13-.69.21-1.16.24l1.72,2.96.1-.05c.25-.14.45-.31.61-.52.16-.2.29-.46.4-.78l.12.03c-.03.31-.09.58-.18.79-.08.21-.22.42-.39.62-.18.2-.37.36-.59.48-.32.18-.66.28-1.03.28-.37,0-.72-.09-1.04-.29-.32-.2-.57-.45-.75-.75-.22-.38-.3-.79-.26-1.24.03-.35.18-.76.44-1.22Zm.72-.26l-.15.44.68,1.19c.08.15.13.25.14.31.02.07.02.17,0,.27-.04.22-.12.49-.24.81.23.07.44.11.65.1.21,0,.42-.06.65-.15l-1.73-2.96Z"/><path class="d" d="m13.3,2.2l.03.07c-.11.14-.18.27-.19.41-.01.13.03.31.12.54l1.03,2.46.41.1.08-.15.11.07-.38.65c-.23-.08-.39-.12-.5-.13-.1-.01-.23-.01-.38,0l-.03-.06c.04-.05.06-.11.07-.17,0-.06,0-.12-.01-.19,0-.02-.05-.14-.13-.34l-.83-1.97c-.07-.17-.13-.28-.17-.34-.04-.06-.09-.11-.16-.16-.06-.04-.16-.08-.28-.12l.02-.07c.19-.02.38.01.57.1.08-.2.16-.36.25-.46.09-.1.2-.18.35-.25Z"/><path class="d" d="m16.3,2.35l.64.27-.17.28.46,1.5c.05.17.12.29.19.35.05.04.09.06.13.05.03,0,.07-.06.13-.14l.1.07-.46.66c-.19-.06-.31-.13-.39-.2-.07-.07-.14-.2-.2-.38-.24.28-.47.61-.69.97-.23-.09-.39-.18-.48-.27-.09-.09-.16-.23-.22-.41l-.44-1.41c-.03-.1-.06-.16-.09-.19-.05-.04-.1-.06-.15-.04-.04.01-.09.06-.15.15l-.1-.07.51-.76.65.26-.16.26.47,1.52c.03.11.07.19.12.23.04.04.13.09.27.13l.4-.55-.48-1.56-.27-.15.37-.58Z"/><path class="d" d="m18.54.71l.03.07c-.13.12-.22.23-.25.32-.03.1-.03.24,0,.44l.19,1.04.8-.9c.2.09.34.18.42.29.08.1.14.26.18.46l.33,1.78c-.22.14-.41.27-.55.39-.11.1-.21.2-.3.32-.19-.11-.38-.18-.56-.23-.18-.04-.44-.07-.78-.08v-.05c.06-.07.1-.15.11-.24.01-.12-.02-.39-.1-.81l-.32-1.71c-.04-.22-.09-.38-.16-.47-.06-.09-.17-.17-.31-.23l.04-.08c.16.04.27.07.34.09.06.02.12.06.18.1.18-.18.3-.3.38-.36.08-.05.18-.1.3-.14Zm.28,3.48l.83.16-.31-1.66c-.03-.15-.06-.26-.1-.31-.04-.05-.12-.11-.24-.16l-.45.5.27,1.47Z"/><path class="d" d="m26.25.05l.06.14c-.15.07-.25.13-.32.2-.07.07-.12.14-.15.23-.03.08-.05.21-.05.38,0,.05,0,.13,0,.22v2.24c0,.25.02.41.07.48.03.05.07.08.12.08.06,0,.15-.05.27-.17l.09.11-.57.46-.19.15c-.16-.08-.27-.18-.33-.3-.06-.12-.1-.32-.1-.59l-1.18.85c-.64-.44-1.07-.66-1.31-.67-.06,0-.11.02-.15.05-.03.03-.05.06-.05.11,0,.05.02.11.05.17.05.08.07.14.07.17,0,.04-.02.07-.04.1-.03.03-.06.04-.1.04-.05,0-.09-.02-.12-.06-.04-.05-.06-.13-.06-.21,0-.1.03-.2.09-.32.06-.12.14-.25.25-.38.02-.03.04-.06.06-.08l.44-.57c-.28-.22-.48-.44-.6-.64-.11-.2-.17-.43-.16-.68,0-.29.09-.55.24-.8.15-.24.38-.43.68-.57.3-.14.6-.2.91-.19.48.01.93.19,1.37.53.11-.11.22-.2.32-.27.1-.07.23-.14.39-.21Zm-1.49.66c-.25-.13-.5-.2-.75-.2-.27,0-.52.05-.75.16-.24.11-.41.26-.53.44-.12.18-.18.37-.19.56,0,.41.2.78.64,1.1l1.03-1.34c-.15-.09-.28-.13-.4-.13-.17,0-.3.07-.41.22-.02.03-.04.05-.06.05-.01,0-.02,0-.04-.02-.01-.01-.02-.03-.02-.05,0-.06.03-.15.1-.26.07-.11.16-.2.28-.26.12-.07.25-.1.39-.09.14,0,.3.04.47.11l.23-.29Zm-1.56,2.26l-.28.37,1.51.69.72-.51v-.51s-1.94-.04-1.94-.04Zm1.94-1.95c-.06-.07-.09-.11-.11-.13-.01-.01-.06-.05-.15-.11l-1.35,1.76,1.61.04v-1.55Z"/><path class="d" d="m28.45.64v.08c-.18.06-.3.14-.39.25-.08.11-.14.28-.18.52l-.39,2.64.3.3.15-.09.06.12-.66.36c-.16-.18-.28-.31-.36-.37-.08-.06-.19-.13-.33-.19v-.07c.07-.03.12-.06.16-.11.04-.05.07-.1.09-.17,0-.02.03-.14.06-.35l.31-2.12c.03-.18.04-.31.03-.38,0-.07-.02-.14-.05-.21s-.09-.15-.18-.25l.06-.05c.17.08.32.21.44.39.17-.13.32-.22.45-.26.13-.04.27-.05.43-.03Z"/><path class="d" d="m30.15,2.12l.6,1.15-1.52.61-.12.53.61.43.53-.2.04.1-1.1.44c-.17-.15-.31-.26-.42-.33-.11-.07-.28-.16-.5-.26l.02-.07c.08-.02.13-.06.17-.11.04-.05.08-.17.12-.36l.39-1.67c.2-.02.36-.05.5-.07.1-.02.33-.08.69-.17Zm-.52.23h-.05s-.31,1.34-.31,1.34l.9-.36-.54-.98Z"/><path class="d" d="m35.18,4.02l.05.11c-.14.05-.24.1-.3.14-.06.04-.1.09-.14.14-.03.05-.08.16-.15.34l-.45,1.16c-.06.15-.08.26-.07.32.01.06.03.1.06.11.04.01.12,0,.24-.04l.04.11-.8.26c-.1-.16-.15-.29-.17-.37-.02-.13,0-.25.04-.37l.65-1.68-.19-.35-.6.24-.58,1.51.12.31-.63.19-.35-.57.29-.15.54-1.39c.06-.16.09-.27.08-.33,0-.08-.06-.18-.16-.32l-.59.2-.6,1.56.13.31-.64.19-.36-.57.3-.14.58-1.5c.06-.15.08-.27.07-.36-.01-.06-.03-.1-.05-.11-.03-.01-.11,0-.23.04l-.04-.11.77-.27c.09.14.15.25.17.32.02.07.03.15.03.22,0,.05-.04.15-.09.29l1.1-.37c.13.22.2.38.22.5.02.12,0,.25-.04.4l1.06-.42.29.6.38-.15Z"/><path class="d" d="m37.8,5.44l.07.09c-.18.09-.3.17-.37.23-.07.06-.14.16-.22.29l-.64,1.11c-.11.18-.16.31-.16.37,0,.06.02.1.05.12.02.01.04.02.07.02.02,0,.07,0,.16-.03l.02.12-.83.16c-.07-.18-.11-.33-.11-.43,0-.11.04-.24.12-.39l-1.15.17c-.16-.41-.17-.74-.03-.97.09-.16.21-.29.35-.39.19-.13.46-.26.81-.38l.07-.85.08-.05c.06.04.11.08.15.09.2.12.43.14.68.07.08.15.19.28.31.42.12.13.23.22.31.26.04.02.07.03.09.03s.08-.02.16-.06Zm-1.38.89l-.46-.66c-.22.16-.37.31-.47.47-.16.28-.17.59-.02.91l.57-.09.37-.64Zm.44-.77l-.73-.78-.07.85.42.6.38-.67Zm.26-1.31l-.14-.08.79-.84.61.35-1.25.57Z"/><path class="d" d="m40.09,6.85l.07.6.4-.06.02.12c-.19.02-.32.05-.38.09-.08.05-.17.13-.26.26l-.84,1.16c-.08.11-.12.2-.12.28,0,.05,0,.08.03.1.02.02.1.02.23.02v.12s-.83.05-.83.05c-.06-.2-.08-.35-.06-.46.02-.11.09-.25.22-.42l.96-1.33-.05-.38-.65.03-.98,1.35.06.31-.68.04-.18-.66.31-.04.9-1.24c.13-.18.2-.31.2-.4,0-.06,0-.1-.04-.12-.03-.02-.1-.03-.21-.01v-.12s.82-.05.82-.05c.07.21.09.36.09.45,0,.09-.05.19-.13.3l-.06.09,1.18-.06Z"/><path class="d" d="m3.39,45.86l.06.11c-.06.07-.09.14-.09.21,0,.1.05.23.15.39.06.1.27.43.62.97.21.33.34.53.39.61.15.25.23.49.25.71.02.23-.03.45-.14.66-.11.22-.31.43-.6.65-.2.15-.67.46-1.4.92-.36-.18-.65-.31-.88-.39-.15-.56-.33-1.02-.55-1.38-.15-.25-.31-.46-.5-.64-.19-.18-.41-.34-.69-.5l.05-.12c.34.21.67.39.97.52.31.13.55.2.72.2.18,0,.37-.07.57-.19.07-.04.18-.11.32-.2.1-.06.2-.13.31-.19.19-.11.34-.19.44-.22.1-.03.23-.05.39-.05l-.03-.06c-.21-.12-.38-.19-.5-.19-.12,0-.25.03-.38.11l-.79.49c-.21.13-.44.18-.69.15-.25-.03-.67-.19-1.28-.49l.05-.12c.32.14.55.22.71.24.16.01.29-.02.41-.09.1-.06.17-.15.21-.26.03-.11.03-.2-.02-.28-.02-.04-.06-.07-.1-.09-.04-.02-.12-.04-.22-.06l.03-.12c.16-.03.29-.01.4.04.11.05.2.13.27.25.02.03.04.07.06.12.02.05.03.1.05.15.09-.05.16-.1.23-.14.24-.14.46-.21.66-.2.2,0,.47.1.79.27-.17-.23-.31-.44-.42-.62-.11-.19-.18-.37-.21-.54-.02-.13,0-.24.07-.35.06-.1.17-.21.33-.31Zm.46,2.2c-.15,0-.27.01-.36.04-.13.04-.24.08-.34.14l-.88.54c-.11.07-.25.11-.4.12-.11,0-.27,0-.47-.05.16.2.28.36.35.47l.07.13,2.11-1.25-.08-.14Zm-1.97,1.51c.09.19.16.35.21.48.05.13.11.33.18.62.23-.13.35-.2.35-.2.02-.01.09-.06.21-.13,0-.14,0-.25-.01-.34-.02-.09-.05-.18-.1-.26-.05-.09-.11-.16-.18-.22-.07-.06-.17-.12-.29-.17l-.38.22Zm.51-.3c.12.07.21.13.28.19.06.06.12.13.17.22.05.08.08.17.11.25.02.08.03.19.04.32l.59-.4c-.12-.06-.21-.12-.27-.18-.06-.06-.12-.13-.17-.21-.05-.08-.08-.17-.1-.26-.02-.09-.03-.19-.02-.3l-.62.37Zm.74-.44c-.01.13,0,.24,0,.32.02.08.05.16.1.24.05.08.1.15.17.2.07.05.16.11.28.17.32-.23.5-.45.53-.67.03-.22-.04-.48-.22-.78l-.87.51Z"/><path class="d" d="m5.52,51.13l-.22,1.11-1.37-.41-.38.3.19.63.48.15-.03.09-.99-.3c-.03-.19-.07-.35-.11-.46-.04-.11-.1-.26-.2-.45l.05-.04c.06.03.12.03.18.01.05-.02.15-.08.28-.18l1.18-.93c.15.09.28.17.38.22.08.04.26.13.56.26Zm-.48-.13l-.04-.02-.94.74.81.24.17-.96Z"/><path class="d" d="m7.32,53.14l.04.61-.29-.02-1,.95c-.12.11-.18.2-.2.28-.01.05,0,.09.01.12.02.02.07.03.16.05v.1s-.71-.11-.71-.11c-.03-.17-.02-.29,0-.38.03-.08.1-.19.22-.31-.31-.08-.66-.13-1.03-.16-.02-.21-.01-.37.02-.48.04-.11.11-.22.23-.33l.94-.89c.07-.06.1-.11.11-.14.02-.05,0-.1-.03-.13-.03-.03-.08-.05-.18-.06v-.1s.81.1.81.1l.05.61-.26-.02-1.01.96c-.07.07-.12.13-.14.19-.02.05-.02.14,0,.26l.59.1,1.04-.99v-.27s.61.06.61.06Z"/><path class="d" d="m7.66,53.88l1.15-.19.06.05-.5.52.39.35-.2.22-.39-.35-1.17,1.32.07.36h.21s0,.12,0,.12l-.74-.04c-.01-.28-.09-.53-.23-.75l.03-.04c.08.01.15,0,.2-.02.07-.03.14-.09.22-.18l1-1.12-.18-.16.08-.09Z"/><path class="d" d="m9.45,56.25l.29.62-.67.88c-.13-.08-.25-.13-.38-.16-.13-.03-.3-.03-.5-.01-.06-.14-.11-.25-.17-.33-.06-.08-.13-.15-.21-.22-.13-.1-.28-.15-.44-.15-.06,0-.1,0-.11-.02-.02-.01-.02-.03-.03-.06,0-.03,0-.05.01-.06.01-.02.04-.03.09-.03.03,0,.08-.01.16-.03l.37-.09.54-.15-.27-.59.59-.78c.18.06.33.1.45.11.12,0,.26,0,.41-.05.12.21.22.37.31.49.06.08.13.15.2.2.08.06.15.09.22.09.07,0,.12-.02.15-.06.02-.03.02-.06.02-.11-.02-.09,0-.16.03-.2.03-.04.07-.07.11-.08.04,0,.08,0,.11.02.04.03.06.07.06.13s-.02.12-.06.18c-.05.06-.1.11-.17.15-.07.04-.17.07-.31.11l-.79.2Zm-.51.14l-1.02.29c.08.03.15.05.21.08.06.03.11.06.16.1.16.12.29.3.38.54l.46-.61-.18-.4Zm-.21-.46l.17.37.92-.26c-.11-.04-.2-.09-.27-.14-.17-.13-.29-.31-.37-.55l-.45.59Z"/><path class="d" d="m11.54,56.5l.36.69-.45.19-.27-.53-.9,1.41.31.47.34-.02-.04.11-.8.05c-.09-.17-.17-.31-.25-.41-.08-.1-.18-.21-.31-.33l.03-.05c.07,0,.13-.02.18-.05.06-.04.13-.12.21-.25l.8-1.26c.24.03.5.02.79-.04Z"/><path class="d" d="m13.61,56.59v.07c-.15.01-.27.05-.35.11-.08.06-.17.18-.26.35l-.4.76,1.02-.19c.1.18.15.33.15.44,0,.12-.06.29-.18.51l-.56,1.05c-.11.2-.21.34-.3.41-.15.12-.34.19-.59.23-.33.05-.71.05-1.14-.02v-.11c.37.03.64.03.81,0,.17-.04.3-.11.4-.2.07-.07.2-.29.39-.64l.51-.97c.06-.11.09-.19.09-.24,0-.07-.03-.16-.09-.26l-.57.11-.68,1.29.08.25-.58.12-.24-.55.28-.08,1.12-2.11c.1-.19.15-.33.16-.42,0-.09-.03-.19-.1-.3l.06-.04c.07.07.12.13.16.18.03.05.07.14.11.25.14-.04.27-.06.38-.05.11,0,.22.03.35.07Z"/><path class="d" d="m15.34,58.46l.35,1.08-1.4.3-.19.44.47.46.49-.1.02.09-1.01.22c-.12-.15-.23-.27-.32-.35-.09-.08-.22-.18-.39-.3l.03-.06c.07,0,.12-.03.16-.07.04-.04.09-.14.16-.3l.58-1.38c.17,0,.32.01.44,0,.09,0,.29-.02.62-.04Zm-.48.12h-.04s-.46,1.1-.46,1.1l.82-.18-.32-.92Z"/><path class="d" d="m17.55,59.24l.23.58-.49.21-.19-.5-.32.14-.47,1.45.22.3.32-.12.03.1-.81.3c-.1-.17-.18-.29-.26-.37-.07-.08-.16-.16-.26-.22l.02-.05c.09-.03.15-.06.19-.11.04-.05.08-.14.13-.29l.33-1.02c.04-.13.06-.22.04-.27-.01-.05-.04-.08-.07-.09-.04-.01-.1,0-.19.05l-.04-.09.67-.28c.11.15.17.28.2.38.02.06.01.14-.02.22l.72-.31Z"/><path class="d" d="m20.79,59.65l1.74-.63c.24.48.33.96.26,1.43-.05.35-.17.67-.37.94-.27.37-.77.84-1.5,1.41-.1-.09-.19-.16-.27-.2-.08-.04-.16-.07-.25-.08-.11-.01-.21-.02-.31,0-.1.01-.23.05-.39.11l-.07-.08c.18-.24.3-.43.37-.57.07-.14.11-.27.13-.39.03-.18,0-.34-.09-.47-.09-.13-.19-.2-.33-.22-.06,0-.11,0-.15,0-.04.01-.08.04-.12.09l-.08-.08c.06-.11.13-.19.22-.23.09-.04.18-.06.28-.05.07,0,.13.03.18.06.06.03.13.09.22.17.07-.59.01-1.07-.16-1.44-.1-.21-.22-.32-.36-.34-.07-.01-.14,0-.19.05-.07.06-.13.17-.19.34l-.1-.05c.04-.2.09-.35.16-.47.07-.11.15-.19.25-.25.1-.05.21-.07.31-.06.16.02.31.11.45.26.14.15.26.39.34.73Zm1.07,1.92c-.14-.09-.26-.15-.35-.18-.09-.03-.19-.06-.3-.07-.09-.01-.18-.02-.28-.01-.1,0-.21.02-.33.04-.08.18-.17.33-.25.46-.15.22-.31.43-.5.65.21-.11.38-.19.52-.22.18-.04.35-.06.51-.03.11.02.24.06.38.13.14-.14.26-.27.34-.37.08-.11.17-.23.25-.37Zm.38-.97c-.17.04-.31.07-.42.08-.11,0-.24,0-.37-.02-.2-.03-.4-.1-.6-.2,0,.08-.01.15-.02.19-.02.17-.08.36-.17.56.11-.02.21-.03.31-.03.1,0,.18,0,.27.01.23.03.46.12.69.27.16-.31.26-.6.31-.86Zm-1.42-.83c.03.2.05.39.04.56.22.11.43.17.62.2.24.03.5.01.78-.07.01-.19,0-.37-.03-.56-.03-.18-.1-.38-.2-.59l-1.21.44Z"/><path class="d" d="m24.22,60.25l.72.88-1.19.8v.48s.59.26.59.26l.42-.27.06.08-.86.57c-.17-.1-.31-.17-.42-.21-.11-.04-.27-.09-.47-.14v-.07c.06-.03.1-.08.12-.13.02-.05.03-.16.04-.33l.03-1.5c.17-.06.3-.11.41-.15.08-.03.27-.12.56-.27Zm-.41.29l-.04.02-.03,1.19.7-.47-.64-.74Z"/><path class="d" d="m26.56,60.17l.42.45-.38.38-.36-.4-.25.25.09,1.52.31.2.26-.23.07.08-.64.58c-.15-.12-.28-.2-.38-.25s-.21-.09-.33-.11v-.06c.07-.06.12-.12.14-.17.02-.06.03-.16.02-.32l-.06-1.07c0-.13-.03-.22-.06-.27-.03-.04-.07-.06-.1-.06-.04,0-.09.04-.16.11l-.07-.07.52-.51c.16.1.26.2.32.28.04.05.06.12.07.21l.56-.55Z"/><path class="d" d="m28.25,59.97l.85.75-1.05.98.07.47.64.15.37-.34.07.07-.76.71c-.18-.07-.34-.11-.45-.14-.12-.02-.28-.04-.49-.06v-.06s.08-.09.09-.15c.01-.05,0-.17-.02-.34l-.21-1.49c.15-.08.28-.15.38-.22.07-.05.24-.17.51-.35Zm-.35.35l-.03.02.17,1.18.62-.58-.75-.63Z"/><path class="d" d="m29.62,59.72l.54.28-.16.24.3,1.39c.03.15.06.24.1.28.03.04.06.06.09.05.02,0,.03-.01.05-.02.02-.02.06-.06.11-.13l.08.07-.45.56c-.16-.07-.27-.14-.32-.22-.06-.08-.11-.22-.16-.44l-.31-1.43-.23-.15.37-.48Zm0-.92l.33-.07-.23.63-.1.02v-.58Z"/><path class="d" d="m32.08,59.06l.46.27.17-.31.09.05c-.09.14-.13.25-.14.31-.01.08,0,.19.04.32l.36,1.2c.03.11.08.19.13.23.03.03.06.04.09.03.02,0,.07-.06.14-.15l.09.06-.4.61c-.17-.06-.29-.13-.35-.2-.06-.07-.12-.19-.18-.37l-.42-1.37-.29-.17-.32.47.42,1.39.24.12-.33.49-.55-.22.13-.24-.39-1.28c-.06-.18-.11-.3-.17-.35-.04-.04-.07-.05-.11-.04-.03.01-.07.06-.12.14l-.09-.06.4-.6c.18.07.3.12.36.18.06.05.1.14.14.25l.03.09.58-.85Z"/><path class="d" d="m38.02,55.18l.11.03c-.04.17-.05.29-.04.38.01.09.06.2.14.34l.99,1.77c.1.18.18.29.24.32.06.03.11.03.16,0,.04-.02.08-.09.12-.21l.12.05-.31.75c-.17,0-.3-.02-.4-.08-.1-.06-.21-.2-.33-.42l-1.23-2.19-.55-.08-.1.18.64,1.14.28-.16-.08.5.54.96.1-.25.11.04-.45,1.18c-.21-.08-.38-.13-.5-.16-.09-.02-.18-.03-.28-.02l-.05-.08c.06-.06.08-.13.08-.2,0-.05-.05-.15-.13-.29l-.36-.65-.7.39.55.99c.15.27.2.52.14.74-.06.22-.19.4-.42.52-.05.03-.14.07-.28.12-.09.04-.16.06-.2.09-.08.04-.12.09-.14.15-.02.06,0,.12.05.21l-.09.05c-.06-.06-.09-.11-.12-.15-.05-.08-.07-.17-.07-.27,0-.1.03-.18.08-.26.04-.06.13-.14.27-.23.14-.1.22-.2.25-.32s0-.25-.08-.39c-.12-.22-.27-.37-.46-.45-.18-.08-.34-.09-.49,0-.11.06-.18.17-.19.32h-.1c-.02-.12-.02-.24,0-.33.02-.09.07-.18.14-.27.05-.06.14-.13.27-.21-.03-.04-.05-.08-.06-.1-.14-.26-.21-.5-.21-.73,0-.23.07-.48.21-.75.14-.27.36-.61.67-1.02.19,0,.33.02.42.07.09.05.19.15.28.29l.58-1.07.78.1.1-.33Zm-2.65,1.93c-.07.18-.1.32-.09.44.01.12.09.29.22.52l.73,1.29c.12.21.18.38.17.49,0,.12-.07.25-.19.4.07-.03.13-.06.18-.09.11-.06.19-.13.24-.21.05-.08.07-.15.06-.22-.01-.07-.06-.18-.14-.32l-.97-1.73c-.07-.13-.13-.24-.16-.34-.02-.06-.04-.14-.05-.24Zm1.26.58l-.38-.68c-.09-.17-.18-.27-.27-.33-.08-.05-.19-.07-.33-.05-.08.11-.12.2-.14.27-.02.1-.03.2,0,.3.02.1.08.24.17.4l.41.73.05-.35.5-.28Zm.25-1.54l-.24.46.46.82.38-.21-.6-1.07Zm.79,1.41l-.38.21.33.59c.11.2.2.33.26.37.1.07.19.09.26.05.04-.02.08-.08.11-.18l-.59-1.05Z"/><path class="d" d="m39.68,54.98l1.11.23-.42,1.37.29.38.63-.18.15-.47.09.03-.31.99c-.19.03-.35.07-.46.11-.11.04-.26.1-.45.19l-.04-.05c.03-.06.03-.12.01-.18-.02-.05-.08-.15-.18-.28l-.92-1.18c.09-.15.17-.27.22-.38.04-.08.13-.26.27-.56Zm-.13.48l-.02.04.73.94.25-.81-.96-.17Z"/><path class="d" d="m41.57,53.32l.53.04.02-.35h.1c-.01.17,0,.28.01.34.03.08.09.17.18.27l.86.91c.08.08.15.13.22.15.04.01.07,0,.09-.01.02-.02.04-.08.06-.19l.1.02-.09.72c-.18.02-.32.01-.4-.02-.09-.03-.2-.12-.32-.25l-.98-1.05-.34-.02-.08.57,1,1.06h.27s-.08.59-.08.59l-.6.04v-.27s-.9-.97-.9-.97c-.13-.14-.23-.22-.31-.24-.05-.02-.09-.01-.11.01-.03.02-.04.09-.05.18l-.1-.02.09-.72c.19-.02.32-.02.4,0,.07.02.15.08.23.16l.06.07.14-1.02Z"/><path class="d" d="m41.57,52.07l2.09-.54c-.03-.06-.05-.12-.05-.17,0-.05,0-.11.03-.18l.08.07c.01.06.03.1.05.14.02.03.08.09.17.17l1.33,1.16c-.08.22-.14.39-.16.52s-.04.27-.04.43c-.24.07-.43.14-.58.22-.15.08-.29.18-.43.31l-.04-.03c0-.08-.01-.15-.04-.2-.03-.05-.11-.13-.24-.25l-1.04-.9c.11-.22.16-.4.16-.53l-.82.21-.48-.42Zm2.14-.01l-.63.17c0,.06,0,.12-.02.18l1.22,1.06.68-.32-1.25-1.09Z"/><path class="d" d="m45.2,49.56l1.59,1.14c-.07.28-.11.48-.12.62-.01.1,0,.21,0,.32-.27.12-.48.23-.63.33-.11.08-.21.18-.31.3h-.06c0-.1-.02-.16-.05-.2-.03-.05-.11-.12-.22-.21l-1.17-.84c.1-.32.14-.63.11-.93.28-.11.56-.28.85-.53Zm.68,1.99l.63-.39-1.35-.97c-.21.12-.35.2-.43.26-.06.04-.12.09-.18.15l1.33.96Z"/><path class="d" d="m45.5,49.33l-.05-.93.47-.13c.07-.02.12-.04.15-.06s.05-.04.07-.08c.01-.02.02-.04.02-.08h.06s.21,1.03.21,1.03l.04-.06c.11-.19.26-.31.45-.36.19-.05.36-.03.52.07.09.06.17.14.23.24.06.1.09.22.11.37,0,.1,0,.28,0,.52-.02.24-.01.4,0,.47.02.07.06.12.12.16.05.03.11.04.17.03.06-.01.11-.05.14-.11.01-.02.03-.06.04-.1,0-.02.02-.04.02-.06.01-.02.03-.03.05-.04.02,0,.04,0,.05,0,.02.01.03.03.04.06,0,.03,0,.07-.03.11-.07.11-.15.18-.25.21-.1.03-.2.02-.29-.03-.07-.04-.13-.1-.17-.19-.04-.08-.07-.22-.1-.42-.02-.2-.06-.34-.1-.41-.06-.11-.14-.2-.23-.26-.1-.06-.21-.08-.33-.04-.12.03-.21.11-.28.23-.05.08-.08.21-.08.36l-.07.02-.23-1.16-.67.2.02.4-.1.02Z"/><path class="d" d="m46.9,45.92l.07-.07c.09.15.16.25.22.31.06.06.15.12.27.17l1,.49c.17.08.28.12.33.12.05,0,.09-.02.1-.05,0-.02.01-.04.01-.06,0-.02-.01-.06-.03-.14l.1-.02.19.71c-.15.07-.28.11-.37.12-.09,0-.21-.02-.35-.09l.21.99c-.35.16-.64.19-.85.08-.14-.07-.26-.17-.36-.29-.13-.16-.25-.39-.38-.68l-.74-.02-.04-.06c.03-.06.06-.1.07-.13.09-.18.1-.38.02-.6.12-.08.24-.18.35-.3.11-.12.18-.21.21-.28.02-.03.02-.06.02-.08,0-.02-.02-.07-.06-.14Zm.16.81l-.64.68h.75s.5-.39.5-.39l-.6-.3Zm.7.35l-.55.44c.15.18.29.31.44.38.25.13.52.11.8-.04l-.11-.5-.58-.29Z"/><circle class="f" cx="24.39" cy="32.15" r="24.17"/><circle class="l" cx="24.39" cy="32.22" r="21.44"/><path class="d" d="m21.27,19.68c-.31-.14-.61-.29-.85-.52-.05-.05-.18-.09-.12-.2.07-.12.16-.01.23.02.8.35,1.65.53,2.52.64.05,0,.11,0,.2,0-.23-.5-.53-.89-1.08-.99-.36-.07-.68.07-.93.38-.28-.36-.51-.75-.62-1.2-.2-.83.25-1.41,1.1-1.44.37-.01.72.08,1.07.2.08.03.16.11.25.04.27-.23.55-.11.81.01.65.32,1.31.61,2.01.78.43.1.86.2,1.34.23-.26.28-.54.44-.85.56-.15.06-.19.11-.14.27.45,1.59.63,3.22.77,4.85.06.66.09,1.32.13,1.98,0,.12.01.2.18.19,1.62-.13,3.19-.41,4.65-1.16.85-.44,1.59-1.01,2.08-1.84.32-.54.49-1.12.38-1.76-.03-.17-.08-.33-.16-.48-.07-.13-.13-.3-.27-.35-.18-.07-.21.15-.31.24-.72.69-1.82.73-2.65.07-.86-.68-.91-1.11-.24-1.97.73-.93,1.7-1.08,2.78-.85.51.11,1.02.23,1.53.34.73.16,1.43.17,2.1-.32-.05.77-.35,1.3-1.1,1.55.87,1.03.89,2.26.89,3.48,0,6.74,0,13.48,0,20.21v.39c-.54-.45-1.03-.85-1.52-1.26-.11-.09-.05-.22-.05-.34,0-5.22,0-10.45,0-15.67,0-.1.03-.21-.02-.31-.31.15-.41.38-.41.73.01,4.95,0,9.89,0,14.84v.37c-.52-.43-1-.82-1.48-1.21-.12-.1-.08-.24-.08-.36,0-4.21,0-8.43,0-12.64v-.34c-.29.05-.44.16-.44.5.01,4.01,0,8.01,0,12.02v.39c-.28-.23-.5-.45-.76-.61-.67-.39-.83-.94-.82-1.71.05-3.16.02-6.31.02-9.47v-.33q-.42.05-.42.46c0,3.31,0,6.63,0,9.94-.09.06-.13-.02-.18-.06-.38-.31-.76-.63-1.15-.94-.18-.14-.25-.29-.25-.52,0-2.7,0-5.4,0-8.1,0-.11.14-.31-.14-.33-.28-.01-.28.14-.28.36,0,2.55,0,5.11,0,7.66v.37c-.52-.43-1-.82-1.48-1.21-.11-.09-.07-.22-.07-.33,0-2.11,0-4.21,0-6.32,0-.1.12-.29-.13-.31-.23-.02-.3.09-.31.3-.16,1.93-.46,3.84-.83,5.75-.03.17.04.26.14.36,1.24,1.32,2.47,2.64,3.71,3.97.05.06.1.12.19.21-.43-.05-.81-.09-1.2-.13.02.16.12.24.19.33.54.73,1.09,1.45,1.63,2.19.1.14.18.16.34.09.62-.3,1.27-.55,1.84-.96.16-.11.27-.06.46.05.63.37.57.93.53,1.56-.2-.23-.28-.5-.51-.66-.02.22-.16.27-.34.29-.52.07-1.02.17-1.58.35.75.39,1.39.85,2.1,1.16.49.21.51.2.39.73-.11.46-.39.8-.81,1.13.12-.38.14-.69.09-1.03-.14.07-.15.3-.31.25-.19-.05-.29-.22-.39-.38-.03-.06,0-.08.05-.1.27.22.47.13.65-.13.07-.1.22-.12.33-.22-.75-.32-1.39-.8-2.11-1.16-.13-.07-.35-.12-.33-.29.02-.17.25-.16.39-.21.43-.14.88-.23,1.33-.3.19-.03.3-.08.27-.3-.03-.17.08-.42-.06-.51-.15-.09-.31.13-.45.21-.48.28-1,.48-1.49.73-.22.11-.38.06-.53-.15-.57-.78-1.17-1.55-1.74-2.33-.21-.29-.46-.38-.79-.37-.07,0-.14,0-.18.07-.08.16,0,.68.14.81.71.66,1.43,1.31,2.15,1.96.08.07.19.15.17.26-.02.13-.16.14-.26.16-.53.12-1.06.24-1.61.25-.18,0-.35.03-.56.1.22.15.41.28.56.46.1.12.23.08.35,0,.36-.23.75-.39,1.17-.51.25-.07.31-.03.32.22.02.65,0,1.3-.16,1.94-.03.15-.01.21.15.24.65.09.63.1.54-.55-.06-.43-.11-.86-.1-1.3,0-.14.02-.28.07-.41.03-.09.1-.14.18-.09.47.3.96.6,1.32,1.04.02.02.02.06.01.09-.02.05-.04.08-.1.06-.39-.31-.77-.64-1.23-.92-.05.7,0,1.35.13,2,.06.34-.16.82-.45.99-.27.15-.56.24-.89.3.16-.27.35-.48.45-.76.06-.16.05-.25-.15-.21-.27.05-.33-.09-.23-.3.29-.63.17-1.3.21-1.96.01-.17-.06-.18-.2-.13-.34.13-.7.23-.98.48-.2.18-.4.13-.59-.05-.15.29-.05.56.01.84-.53-.14-.83-.64-.7-1.16.01-.06.05-.13.03-.17-.22-.31.06-.35.23-.38.57-.12,1.16-.1,1.73-.24.13-.03.27-.05.46-.09-.76-.7-1.49-1.37-2.27-2.08v1.59h-.05c-.6-.92-1.2-1.85-1.83-2.83-.08.25-.05.47-.05.69.01,1.37.07,2.73.5,4.04.09.26.19.52.32.76.58,1.12,1.49,1.62,2.76,1.43-.19.89-1.28,1.59-2.21,1.44-.45-.07-.88-.23-1.27-.47-.19-.12-.28-.08-.41.08-.38.48-.79.94-1.18,1.41-.11.14-.17.14-.28,0-.38-.47-.78-.92-1.16-1.39-.14-.18-.25-.22-.45-.09-.31.2-.65.33-1.01.41-1.08.24-2.03-.28-2.46-1.38.32,0,.63.04.94,0,.73-.12,1.27-.52,1.66-1.13.49-.76.7-1.63.83-2.51.16-1.04.18-2.09.15-3.14,0-.04-.01-.07-.03-.17-.63.98-1.24,1.92-1.88,2.92v-1.68c-.78.71-1.51,1.38-2.28,2.08.59.13,1.14.24,1.69.26.17,0,.34,0,.5.07.16.07.45.08.23.38-.02.02,0,.07.02.11.11.61-.09.99-.69,1.25.03-.15.07-.29.09-.44.02-.14,0-.28-.07-.43-.26.24-.48.16-.72-.04-.25-.21-.58-.29-.89-.4-.14-.05-.18.01-.17.14.04.66-.08,1.33.21,1.96.1.22.04.35-.23.3-.21-.04-.21.05-.15.21.1.27.28.49.47.76-.38-.07-.68-.17-.96-.34-.15-.09-.2-.25-.29-.39-.25-.42-.04-.83,0-1.24.04-.43.04-.86.03-1.33-.47.28-.84.62-1.24.92-.06.02-.08-.01-.1-.06,0-.15.11-.23.2-.31.31-.26.64-.5.97-.73.25-.17.33-.14.39.17.04.25.04.51,0,.77-.05.37-.04.75-.13,1.12-.05.21.04.29.24.24.16-.04.37.03.49-.08.14-.14-.05-.31-.06-.47-.02-.55-.11-1.1-.07-1.66.02-.27.07-.3.34-.23.39.11.77.26,1.11.48.18.12.33.13.46-.06.11-.17.3-.24.48-.39-.2-.07-.37-.1-.55-.1-.55,0-1.08-.13-1.61-.24-.1-.02-.24-.03-.27-.16-.03-.12.08-.19.16-.26.72-.65,1.43-1.3,2.15-1.96.14-.13.23-.63.15-.81-.02-.05-.06-.08-.11-.08-.3,0-.59,0-.79.29-.56.77-1.14,1.52-1.71,2.28-.31.41-.33.43-.78.21-.54-.27-1.11-.47-1.61-.83-.17-.12-.24-.09-.24.12-.02.57-.03.57.52.67.43.08.85.18,1.27.31.09.03.21.05.22.17,0,.09-.1.14-.18.18-.76.4-1.46.9-2.3,1.27.25.11.45.24.59.43.06.08.12.09.2.02.06-.06.12-.13.23-.12.05.02.08.05.05.1-.04.06-.07.12-.12.17-.25.3-.32.3-.56-.04-.11.33-.01.64.02.99-.53-.41-.8-.9-.82-1.53,0-.14.13-.16.23-.2.78-.3,1.45-.8,2.19-1.18.02-.01.05-.02.12-.06-.56-.19-1.07-.29-1.59-.36-.18-.02-.32-.07-.33-.29-.23.18-.31.43-.49.66-.05-.31-.05-.58-.02-.85.05-.43.42-.59.7-.82.08-.07.21.02.3.08.57.4,1.22.65,1.84.96.14.07.22.06.32-.07.59-.8,1.18-1.58,1.78-2.38.03-.04.07-.07.04-.16-.37.04-.75.08-1.13.13.01-.12.11-.17.17-.24,1.22-1.31,2.44-2.62,3.67-3.92.13-.13.17-.25.13-.44-.34-1.86-.64-3.72-.81-5.6-.01-.12.05-.29-.12-.36-.24-.1-.33-.02-.33.24,0,2.13,0,4.25,0,6.38,0,.19-.05.31-.2.42-.44.35-.87.71-1.36,1.11v-.36c0-2.57,0-5.14,0-7.72,0-.1.06-.24-.11-.3-.25-.08-.32-.03-.32.26,0,2.72,0,5.44,0,8.16,0,.22-.07.36-.24.5-.44.34-.86.7-1.29,1.05-.1-.11-.05-.22-.05-.32,0-3.25,0-6.49,0-9.74,0-.1.05-.24-.05-.3-.1-.06-.23-.1-.33-.08-.07.02-.03.16-.03.24,0,3.43,0,6.87,0,10.3,0,.21-.06.34-.22.47-.44.34-.86.7-1.3,1.06-.07-.12-.04-.24-.04-.35,0-4.01,0-8.01,0-12.02,0-.33-.14-.45-.44-.52v.33c0,4.19,0,8.37,0,12.56,0,.28-.06.47-.3.65-.42.31-.81.66-1.27,1.03v-.35c0-4.94,0-9.87,0-14.81,0-.35-.06-.62-.43-.78v.33c0,5.21,0,10.43,0,15.64,0,.23-.06.38-.25.52-.44.34-.86.69-1.29,1.05-.08-.11-.05-.21-.05-.3,0-6.8,0-13.59,0-20.39,0-.58.02-1.17.15-1.74.12-.58.32-1.12.76-1.6-.74-.25-1.07-.78-1.11-1.56.84.62,1.71.42,2.58.22.59-.13,1.17-.3,1.77-.33,1.41-.07,2.11.85,2.57,1.79.03.06.04.11,0,.17-.53,1.05-1.64,1.74-2.79,1.29-.29-.11-.56-.28-.73-.53-.15-.22-.24-.12-.34.02-.35.5-.39,1.05-.25,1.62.25,1,.91,1.69,1.73,2.25,1.2.82,2.57,1.2,3.98,1.41.44.07.88.09,1.33.15.18.03.23-.04.22-.2-.07-1.04.37-1.91.97-2.7.43-.58.7-1.21.82-1.91.04-.21.03-.31-.24-.31-.58.01-1.16-.06-1.72-.28-.17-.07-.34-.15-.51-.33h.26c.06,0,.15.11.17-.05Z"/><path class="h" d="m16,43.85s-.05-.05-.08-.08c.02-.18.12-.28.3-.3.03.03.05.05.08.08-.1.1-.2.21-.3.31Z"/><path class="h" d="m32.31,43.54s.05-.05.08-.08c.18.02.28.12.3.3-.03.03-.05.05-.08.08-.1-.1-.2-.21-.3-.31Z"/><path class="b" d="m21.27,19.68c.05.02.1.04.23.08-.19.03-.3.03-.4-.04.06-.02.13,0,.17-.05Z"/><path class="f" d="m16.23,43.47c-.12.08-.23.18-.3.3-.03.03-.06.05-.09.08-.14.19-.25.34-.41,0-.12-.24-.41-.32-.7-.44.97-.4,1.77-.98,2.7-1.45-.62-.22-1.19-.36-1.78-.43-.24-.03-.39-.06-.31-.36.04-.15,0-.31,0-.47,0-.07-.05-.17.04-.21.08-.03.15.04.21.08.6.41,1.27.67,1.92.99.17.08.24.02.33-.1.64-.86,1.28-1.71,1.92-2.56.1-.13.81-.32.93-.25.02,0,.03.03.04.04.09.15-.03.87-.16,1-.75.68-1.49,1.36-2.23,2.04-.04.04-.08.08-.13.13.85.28,1.74.28,2.6.47-.32.16-.56.38-.77.64-.08.1-.2.05-.29-.03-.36-.3-.8-.42-1.23-.57-.14-.05-.22-.04-.2.15.04.71-.06,1.43.21,2.11.05.12.02.18-.13.18-.2,0-.4.01-.59.05-.26.05-.31-.05-.26-.28.13-.66.19-1.33.13-2,0-.05-.01-.1-.03-.21-.51.36-1.01.69-1.42,1.12Z"/><path class="f" d="m32.69,43.77c-.08-.13-.18-.22-.3-.3-.41-.43-.91-.75-1.42-1.12-.11.74-.03,1.44.08,2.12.07.4.07.41-.33.35-.17-.02-.33-.04-.5-.03-.15,0-.18-.06-.13-.18.28-.69.17-1.42.21-2.14,0-.15-.06-.16-.17-.12-.43.15-.87.27-1.23.56-.13.1-.26.14-.36,0-.19-.26-.43-.43-.72-.58.85-.22,1.74-.2,2.6-.49-.55-.5-1.09-1-1.62-1.49-.26-.24-.52-.48-.79-.72-.09-.08-.14-.16-.13-.28,0-.19,0-.38,0-.56,0-.12.02-.2.16-.15,0,0,.02,0,.03,0,.48-.04.79.19,1.06.58.52.76,1.1,1.47,1.64,2.22.11.15.2.17.36.09.65-.31,1.32-.57,1.92-.99.05-.04.12-.1.18-.07.09.04.04.14.04.21,0,.18-.03.36.01.53.06.23-.04.28-.23.29-.58.06-1.14.22-1.7.38-.04.01-.07.03-.15.07.9.47,1.71,1.05,2.67,1.45-.34.15-.65.27-.8.61-.04.09-.12.04-.17-.02-.07-.08-.15-.16-.22-.24Z"/><path class="f" d="m21.76,19.96c.46.01.93.05,1.39-.06.32-.07.35-.12.2-.41-.28-.57-.66-1.01-1.36-1.02-.22,0-.43.06-.62.18-.08.06-.15.09-.22-.02-.26-.4-.48-.82-.43-1.33.04-.42.32-.72.73-.78.46-.07.9,0,1.34.17.09.04.14.07.12.19-.1.5.07.96.29,1.39.2.4.42.78.62,1.18.02.03.03.07.04.11.18.51.11.6-.43.63-.61.03-1.2-.03-1.79-.18-.01-.12.06-.08.12-.07Z"/><path class="i" d="m23.38,17.82c.23-.46.33-.5.69-.28-.21.13-.4.27-.51.48-.04.07-.09.06-.15.03-.25-.13-.42-.67-.29-.93.04-.08.09-.11.16-.05.05.04.14.05.09.17-.12.3-.11.3,0,.57Z"/><path class="j" d="m22.9,19.76c-.68.22-1.28-.06-1.86-.37.63.1,1.24.28,1.86.37Z"/><path class="k" d="m15.17,44.61c-.24-.22-.37-.44-.44-.69-.03-.1-.09-.23,0-.3.08-.07.18.03.27.06.11.05.21.09.17.26-.04.2-.08.4,0,.67Z"/><path class="k" d="m33.49,44.55c.01-.21-.02-.4-.05-.59-.02-.11,0-.2.1-.24.11-.04.23-.18.34-.09.09.08.02.22-.02.33-.07.23-.2.42-.38.59Z"/><path class="e" d="m20.46,43.57c0-.26-.01-.46-.06-.65-.05-.21.14-.28.28-.31.16-.03.13.14.14.23.03.29-.08.51-.36.73Z"/><path class="e" d="m28.17,43.57c-.28-.22-.4-.45-.37-.73.01-.1-.02-.26.14-.23.14.03.33.1.28.31-.05.2-.07.4-.05.66Z"/><path class="c" d="m30.26,45.6c.07-.17.14-.3.19-.44.04-.11.05-.24.22-.2.1.02.23-.02.27.12.03.13-.03.24-.13.31-.16.12-.33.26-.56.21Z"/><path class="c" d="m17.95,44.96c.12-.01.17.03.19.12,0,.06.04.11.05.17.02.12.21.25.08.33-.14.09-.29-.07-.42-.15-.13-.08-.23-.2-.18-.37.04-.15.2-.09.28-.11Z"/><path class="k" d="m14.76,41.55c-.03-.34.03-.62.28-.83.11-.09.17-.07.18.08.01.17,0,.32-.17.43-.1.07-.18.18-.3.31Z"/><path class="k" d="m33.84,41.51c-.12-.24-.51-.3-.44-.66.01-.06-.03-.15.06-.18.07-.02.12.05.17.09.21.2.25.46.21.74Z"/><path class="g" d="m21.76,19.96s-.08.04-.12.07c-.08,0-.15-.02-.2-.1.11-.02.22-.03.31.04Z"/></svg>