<?xml version="1.0" encoding="UTF-8"?><svg id="Capa_1" xmlns="http://www.w3.org/2000/svg" width="310.2" height="371.7" xmlns:xlink="http://www.w3.org/1999/xlink" viewBox="0 0 310.2 371.7"><defs><filter id="outer-glow-58" filterUnits="userSpaceOnUse"><feOffset dx="0" dy="0"/><feGaussianBlur result="blur" stdDeviation="19"/><feFlood flood-color="#fff" flood-opacity=".8"/><feComposite in2="blur" operator="in"/><feComposite in="SourceGraphic"/></filter></defs><text transform="translate(79 324)" style="fill:#fff; font-family:BloggerSans-Bold, &apos;Blogger Sans&apos;; font-size:30.5px; font-weight:700;"><tspan x="0" y="0" style="letter-spacing:0em;">A</tspan><tspan x="18.1" y="0">RGE</tspan><tspan x="69.5" y="0" style="letter-spacing:0em;">NT</tspan><tspan x="105.3" y="0">I</tspan><tspan x="113.4" y="0" style="letter-spacing:0em;">N</tspan><tspan x="133" y="0">A</tspan><tspan x="42.3" y="36.5" style="letter-spacing:0em;">C</tspan><tspan x="58.9" y="36.5" style="letter-spacing:0em;">A</tspan><tspan x="77" y="36.5" style="letter-spacing:0em;">F</tspan><tspan x="92.6" y="36.5">S</tspan></text><g style="filter:url(#outer-glow-58);"><circle cx="154.5" cy="146.4" r="111.3" style="fill:#343d8b; stroke-width:0px;"/><path d="m67.3,125c.2,0,.3,0,.5,0,.1,0,.2,0,.3,0s.2,0,.2.1c0,0,.1.1.2.2,0,0,.2.2.3.5.1.2.2.5.3.8s.1.7.2,1.1c0,.4,0,.8,0,1.3-.1.9-.4,1.7-.7,2.4-.4.7-.9,1.3-1.6,1.7-.7.4-1.4.7-2.4.9-.9.2-2,.2-3.1,0-1.2-.1-2.2-.4-3.1-.8-.9-.4-1.6-.9-2.2-1.5-.6-.6-1-1.3-1.2-2.1-.2-.8-.3-1.6-.2-2.5,0-.4.1-.7.2-1s.2-.6.4-.9.3-.5.5-.7c.2-.2.3-.4.4-.4.1,0,.2-.1.3-.2,0,0,.2,0,.3,0s.2,0,.4,0c.1,0,.3,0,.5,0,.2,0,.4,0,.6,0,.2,0,.3,0,.4.1,0,0,.2,0,.2.1,0,0,0,.1,0,.2,0,.1,0,.2-.2.4-.1.1-.3.3-.5.6-.2.2-.4.5-.5.8-.2.3-.3.7-.3,1.2,0,.5,0,1,.2,1.4.2.4.5.8.9,1.2s.9.6,1.5.8c.6.2,1.3.4,2,.5.8,0,1.6.1,2.2,0,.6,0,1.2-.3,1.6-.5.4-.2.8-.6,1-1,.2-.4.4-.9.5-1.4,0-.5,0-.9,0-1.3,0-.4-.2-.7-.3-.9-.1-.3-.2-.5-.3-.7s-.1-.3-.1-.4c0,0,0-.1,0-.2,0,0,0,0,.2,0,0,0,.2,0,.4,0,.2,0,.4,0,.6,0Z" style="fill:#fff; stroke-width:0px;"/><path d="m65.8,110.6c1.1.3,2.1.7,2.9,1.2.8.5,1.5,1.1,2,1.8.5.7.8,1.5.9,2.3s0,1.8-.2,2.8c-.3,1-.7,1.8-1.1,2.5-.5.7-1.1,1.2-1.8,1.5-.7.3-1.5.5-2.5.5-.9,0-2-.2-3.2-.5-1.1-.3-2.1-.7-2.9-1.2-.8-.5-1.5-1.1-1.9-1.8-.5-.7-.8-1.5-.9-2.3-.1-.9,0-1.8.2-2.8.3-1,.6-1.8,1.1-2.5.5-.7,1.1-1.2,1.8-1.5.7-.3,1.5-.5,2.5-.5.9,0,2,.1,3.2.5Zm-.6,2.8c-.7-.2-1.4-.3-2-.4-.6,0-1.2,0-1.7.1-.5.1-.9.4-1.3.7-.3.4-.6.9-.8,1.5-.2.6-.2,1.2,0,1.7.1.5.4.9.7,1.3.4.4.8.7,1.4,1,.5.3,1.1.5,1.8.7.7.2,1.4.3,2.1.4.6,0,1.2,0,1.7-.1.5-.1.9-.4,1.2-.7.3-.4.6-.9.8-1.5.2-.6.2-1.2,0-1.7s-.4-.9-.8-1.3c-.4-.4-.8-.7-1.4-1-.6-.3-1.2-.5-1.8-.7Z" style="fill:#fff; stroke-width:0px;"/><path d="m77.2,100.6c.2,0,.3.2.4.3,0,.1.2.2.2.3,0,.1,0,.2,0,.4,0,.1,0,.3-.1.4l-.5,1c-.1.2-.2.4-.3.5s-.3.2-.5.3c-.2,0-.4.1-.7.1-.3,0-.6,0-1,0h-7.4c-.4.1-.9.1-1.4.1-.5,0-1,0-1.4,0h0c.5.2,1,.4,1.4.6.5.2,1,.4,1.5.7l6.7,3.2c0,0,.1,0,.2.1,0,0,0,.1,0,.2,0,.1,0,.2,0,.4,0,.2-.1.3-.2.6-.1.2-.2.4-.3.5,0,.1-.2.2-.2.3,0,0-.1,0-.2.1s-.1,0-.2,0l-11.5-5.5c-.3-.1-.5-.3-.6-.6,0-.2,0-.5,0-.7l.6-1.3c.1-.2.2-.4.3-.6s.3-.3.4-.3c.2,0,.4-.1.6-.2.2,0,.5,0,.8,0h5.8c.3-.1.7-.1,1-.1.3,0,.7,0,1,0,.3,0,.7,0,1,0,.3,0,.6,0,1,0h0c-.5-.2-1-.4-1.5-.7s-1-.5-1.4-.7l-6-2.9c0,0-.1,0-.2-.1,0,0,0-.1,0-.3,0-.1,0-.2,0-.4,0-.1.1-.3.2-.6.1-.2.2-.4.3-.5,0-.1.2-.2.2-.3s.1,0,.2,0c0,0,.1,0,.2,0l11.5,5.5Z" style="fill:#fff; stroke-width:0px;"/><path d="m72.8,85.6c.2.1.3.2.4.3.1,0,.2.2.2.3,0,0,0,.2,0,.2s0,.1,0,.2l-2.4,3.6,3.2,2.1,2.3-3.4c0,0,0,0,.1-.1,0,0,.1,0,.2,0,0,0,.2,0,.3.1s.3.2.5.3c.2.1.3.2.4.3.1,0,.2.2.3.3,0,0,0,.2,0,.2,0,0,0,.1,0,.2l-2.3,3.4,4.4,3c0,0,.1.1.1.2,0,0,0,.2,0,.3,0,.1,0,.2-.2.4,0,.2-.2.3-.3.6-.1.2-.3.4-.4.5-.1.1-.2.2-.3.3,0,0-.2,0-.2.1,0,0-.1,0-.2,0l-10.7-7.2c-.3-.2-.4-.4-.4-.6,0-.2,0-.4.1-.6l3.5-5.2c0,0,0,0,.1-.1,0,0,.1,0,.2,0,0,0,.2,0,.4.1.1,0,.3.2.5.3Z" style="fill:#fff; stroke-width:0px;"/><path d="m89,84.8c.2.1.3.3.4.4,0,.1.2.2.2.3,0,0,0,.2,0,.2,0,0,0,.1,0,.2l-4.4,5c-.1.2-.3.3-.5.3s-.4,0-.7-.3l-9.3-8.1c-.2-.2-.4-.4-.4-.6s0-.4.2-.6l4.4-5s0,0,.1,0c0,0,.1,0,.2,0,0,0,.2,0,.3.2.1,0,.3.2.4.3.2.1.3.3.4.4,0,.1.2.2.2.3,0,0,0,.2,0,.2,0,0,0,.1,0,.2l-3.1,3.6,2.6,2.3,2.6-3s0,0,.2,0c0,0,.1,0,.2,0,0,0,.2,0,.3.2.1,0,.3.2.4.3.2.1.3.3.4.4,0,.1.2.2.2.3,0,0,0,.2,0,.2s0,.1,0,.2l-2.6,3,3,2.6,3.1-3.6s0,0,.2,0,.1,0,.2,0c0,0,.2,0,.3.2.1,0,.3.2.4.3Z" style="fill:#fff; stroke-width:0px;"/><path d="m94.7,71.5c.9,1,1.5,1.9,1.8,2.8.4.9.5,1.8.4,2.6,0,.8-.3,1.6-.8,2.4s-1.1,1.5-2,2.3l-2.4,2.1c-.2.1-.4.2-.6.2-.2,0-.4-.1-.6-.4l-8.1-9.3c-.2-.2-.3-.5-.3-.7,0-.2.1-.4.3-.5l2.6-2.2c.9-.8,1.8-1.3,2.6-1.6.8-.3,1.6-.4,2.4-.4s1.6.3,2.4.8c.8.5,1.5,1.1,2.3,2Zm-2,1.9c-.4-.5-.9-.9-1.4-1.3-.5-.3-1-.6-1.5-.7-.5-.1-1.1,0-1.6,0-.5.2-1.1.5-1.8,1l-1,.9,6.3,7.3,1.1-.9c.6-.5,1-1,1.2-1.5.2-.5.4-1,.4-1.5,0-.5-.2-1.1-.4-1.7-.3-.6-.7-1.2-1.2-1.8Z" style="fill:#fff; stroke-width:0px;"/><path d="m107,70.8c.1.2.2.3.3.5s.1.2.1.3,0,.2,0,.2c0,0,0,.1-.1.1l-5.6,3.7c-.2.1-.4.2-.6.1-.2,0-.4-.2-.6-.5l-6.8-10.3c-.2-.3-.2-.5-.2-.7s.2-.4.4-.5l5.6-3.6c0,0,.1,0,.2,0,0,0,.1,0,.2,0,0,0,.2.1.3.3s.2.3.3.4c.1.2.2.3.3.4s.1.2.1.3,0,.2,0,.2,0,.1-.1.1l-4,2.6,1.9,2.9,3.4-2.2c0,0,.1,0,.2,0,0,0,.1,0,.2,0,0,0,.2.1.3.2s.2.3.3.4c.1.2.2.3.3.5,0,.1.1.2.1.3,0,0,0,.2,0,.2,0,0,0,.1-.1.1l-3.4,2.2,2.2,3.3,4-2.6c0,0,.1,0,.2,0,0,0,.1,0,.2,0,0,0,.2.1.3.2s.2.3.3.4Z" style="fill:#fff; stroke-width:0px;"/><path d="m117.9,66c0,0,0,.1,0,.2,0,0,0,.1-.1.2,0,0-.2.2-.4.3s-.4.2-.7.4c-.3.1-.5.2-.6.3-.2,0-.3,0-.4.1-.1,0-.2,0-.3,0,0,0-.1,0-.2-.2l-2.5-2.3c-.3-.3-.6-.5-.8-.7-.2-.2-.5-.3-.7-.4-.2,0-.5-.1-.7-.1-.2,0-.5,0-.7.2l-.8.4,2.4,4.8c0,0,0,.1,0,.2,0,0,0,.1-.1.2,0,0-.2.2-.3.3-.1,0-.3.2-.6.3-.2.1-.4.2-.6.3-.2,0-.3,0-.4.1-.1,0-.2,0-.3,0,0,0-.1,0-.1-.1l-5.7-11.5c-.1-.3-.2-.5-.1-.7s.2-.3.4-.4l3.1-1.5c.3-.2.6-.3.8-.4.2,0,.4-.2.6-.2.5-.2,1-.3,1.5-.3.5,0,.9,0,1.3.2s.8.4,1.1.7c.3.3.6.7.9,1.2.2.4.4.8.4,1.2,0,.4,0,.8,0,1.2,0,.4-.2.7-.4,1.1-.2.3-.4.7-.7,1,.2,0,.4,0,.7,0,.2,0,.4.1.7.3s.5.3.7.4.5.4.8.6l2.2,2c.2.2.4.4.5.5,0,0,.1.2.2.2Zm-7.4-7.1c-.2-.4-.5-.7-.8-.9-.3-.2-.7-.3-1.2-.2-.1,0-.3,0-.5.1-.2,0-.4.2-.7.3l-1.1.5,1.8,3.6,1.2-.6c.3-.2.6-.4.8-.6s.4-.4.5-.7c0-.2.1-.5.1-.8,0-.3-.1-.5-.2-.8Z" style="fill:#fff; stroke-width:0px;"/><path d="m129.5,61.2c.2.2.3.4.3.5,0,.1,0,.3,0,.4,0,0-.2.2-.3.3s-.4.2-.7.3c-.3.1-.6.2-.8.3-.2,0-.3,0-.4,0-.1,0-.2,0-.2,0,0,0-.1-.1-.2-.2l-1.8-2.4-4.7,1.6v2.9c.1.1.1.2,0,.3,0,0,0,.2-.2.2,0,0-.2.1-.4.2-.2,0-.4.2-.7.3-.3.1-.5.2-.7.2-.2,0-.3,0-.4,0,0,0-.2-.2-.2-.3,0-.2,0-.4,0-.6l-.2-13.2c0-.1,0-.2,0-.3,0,0,0-.2.2-.3.1,0,.2-.2.4-.2s.5-.2.8-.3c.4-.1.7-.2.9-.3s.4-.1.6-.1c.1,0,.2,0,.3,0,0,0,.2.1.2.3l8,10.5Zm-9.2-7.8h0s.2,6.3.2,6.3l3.6-1.2-3.7-5.1Z" style="fill:#fff; stroke-width:0px;"/><path d="m139.5,57.9c0,.2,0,.3,0,.5,0,.1,0,.2,0,.3,0,0,0,.2,0,.2s0,.2-.1.3c0,0-.2.2-.4.4-.2.2-.4.4-.7.5-.3.2-.6.4-1,.5-.4.2-.8.3-1.2.4-.9.2-1.7.2-2.5,0-.8-.1-1.5-.4-2.1-.9-.6-.5-1.2-1.1-1.6-1.9-.5-.8-.8-1.8-1.1-3-.3-1.2-.3-2.3-.2-3.2,0-1,.3-1.8.7-2.6.4-.7.9-1.3,1.6-1.8.7-.5,1.4-.8,2.3-1,.4,0,.7-.1,1.1-.1.3,0,.7,0,1,0,.3,0,.6.1.8.2.3,0,.4.2.6.2.1,0,.2.1.2.2,0,0,0,.1.1.2,0,0,0,.2.1.3,0,.1,0,.3.1.5,0,.2,0,.4.1.6,0,.2,0,.3,0,.4,0,.1,0,.2,0,.2,0,0,0,0-.1,0-.1,0-.2,0-.4-.1-.2,0-.4-.2-.7-.3-.3,0-.6-.2-1-.2-.4,0-.8,0-1.3,0-.5.1-1,.3-1.3.6s-.6.7-.8,1.2c-.2.5-.3,1-.3,1.7,0,.6,0,1.3.2,2.1.2.8.4,1.5.7,2.1.3.6.6,1,1,1.3.4.3.8.5,1.2.6.5,0,.9,0,1.5,0,.5-.1.9-.3,1.2-.4.3-.2.6-.4.8-.6.2-.2.4-.4.5-.5.1-.1.2-.2.3-.3,0,0,.1,0,.2,0,0,0,0,0,.1.1,0,0,0,.2.1.3,0,.2,0,.4.2.6Z" style="fill:#fff; stroke-width:0px;"/><path d="m144.3,59.2c0,0,0,.1,0,.2,0,0-.1.1-.2.2,0,0-.2,0-.4.1-.2,0-.4,0-.6.1-.3,0-.5,0-.7,0-.2,0-.3,0-.4,0-.1,0-.2,0-.2-.1,0,0,0-.1,0-.2l-1.8-13.3c0,0,0-.1,0-.2,0,0,.1-.1.2-.2.1,0,.2,0,.4-.1.2,0,.4,0,.6-.1.3,0,.5,0,.7,0,.2,0,.3,0,.4,0,.1,0,.2,0,.2.1,0,0,0,.1,0,.2l1.8,13.3Z" style="fill:#fff; stroke-width:0px;"/><path d="m158.5,51.4c0,1.2,0,2.2-.3,3.2-.2.9-.6,1.7-1.1,2.4-.5.7-1.2,1.2-2,1.6-.8.4-1.7.6-2.7.6-1,0-1.9,0-2.7-.3s-1.4-.7-2-1.2c-.5-.6-.9-1.3-1.2-2.2-.3-.9-.5-2-.5-3.2,0-1.1,0-2.2.3-3.1.2-.9.6-1.7,1.1-2.4.5-.7,1.2-1.2,2-1.6.8-.4,1.7-.6,2.8-.6,1,0,1.9,0,2.7.3.8.3,1.4.7,2,1.2.5.6,1,1.3,1.3,2.2.3.9.5,2,.5,3.2Zm-2.8.3c0-.7-.1-1.4-.2-2-.1-.6-.3-1.1-.6-1.5-.3-.4-.6-.7-1.1-1-.4-.2-1-.3-1.7-.3-.7,0-1.2.2-1.6.5-.4.3-.8.7-1,1.1-.3.5-.4,1-.5,1.6,0,.6-.1,1.2,0,1.9,0,.8.1,1.5.2,2.1.1.6.3,1.1.6,1.6.3.4.6.7,1.1,1,.4.2,1,.3,1.7.3.7,0,1.2-.2,1.6-.5.4-.3.8-.7,1-1.1.3-.5.4-1,.5-1.6s.1-1.2,0-1.9Zm-3.2-10.8c0-.1.2-.2.3-.3,0,0,.2-.1.3-.2s.3,0,.4,0c.2,0,.4,0,.6,0,.3,0,.6,0,.7,0,.2,0,.3,0,.4.2,0,0,0,.1,0,.2,0,0,0,.2-.2.3l-2.2,2.3c0,0-.1.1-.2.2,0,0-.2,0-.3.1-.1,0-.2,0-.4,0s-.3,0-.5,0c-.2,0-.4,0-.6,0-.1,0-.2,0-.3,0,0,0,0-.1,0-.2,0,0,0-.2.1-.3l1.8-2.3Z" style="fill:#fff; stroke-width:0px;"/><path d="m171.6,58.9c0,.2,0,.3-.1.4,0,.1-.2.2-.3.3-.1,0-.2.1-.3.2-.1,0-.3,0-.4,0h-1.1c-.2-.2-.4-.2-.6-.3-.2,0-.3-.2-.4-.3-.1-.2-.3-.3-.4-.6s-.2-.6-.4-.9l-2.6-7c-.1-.4-.3-.9-.4-1.3-.1-.5-.3-.9-.4-1.4h0c0,.5,0,1-.1,1.6,0,.5,0,1.1-.2,1.6l-.8,7.4c0,0,0,.1,0,.2,0,0-.1,0-.2.1,0,0-.2,0-.4,0-.2,0-.4,0-.6,0-.2,0-.4,0-.6,0-.2,0-.3,0-.4-.1,0,0-.1-.1-.2-.2,0,0,0-.1,0-.2l1.4-12.7c0-.3.2-.6.4-.7.2-.2.4-.2.7-.2l1.4.2c.3,0,.5,0,.6.1.2,0,.3.2.4.3s.2.3.3.5c.1.2.2.5.3.8l2,5.4c.1.3.2.7.3,1,.1.3.2.6.3,1,.1.3.2.6.3.9,0,.3.2.6.3.9h0c0-.5,0-1,.1-1.6,0-.6.1-1.1.2-1.6l.7-6.6c0,0,0-.1,0-.2,0,0,.1,0,.2-.1.1,0,.2,0,.4,0s.4,0,.6,0c.2,0,.4,0,.6,0,.2,0,.3,0,.4.1,0,0,.1.1.2.2,0,0,0,.1,0,.2l-1.4,12.7Z" style="fill:#fff; stroke-width:0px;"/><path d="m189,63.6c0,.3,0,.5,0,.6,0,.2,0,.3-.2.3,0,0-.2,0-.4,0-.2,0-.4-.1-.8-.2-.3-.1-.6-.2-.8-.3s-.3-.1-.4-.2c0,0-.1-.1-.2-.2s0-.2,0-.3v-3s-4.8-1.5-4.8-1.5l-1.6,2.4c0,0-.1.2-.2.2,0,0-.1,0-.3,0-.1,0-.2,0-.4,0-.2,0-.4-.1-.7-.2-.3,0-.5-.2-.7-.3-.2,0-.3-.2-.3-.3,0-.1,0-.2,0-.4s.2-.3.3-.5l7.7-10.8c0-.1.2-.2.2-.2,0,0,.2,0,.3,0,.1,0,.3,0,.5,0,.2,0,.5.1.8.2.4.1.7.2.9.3.2,0,.4.2.5.2.1,0,.2.2.2.3s0,.2,0,.4l.2,13.2Zm-2.7-11.7h0s-3.6,5.2-3.6,5.2l3.6,1.1v-6.3Z" style="fill:#fff; stroke-width:0px;"/><path d="m199,69.1c0,0,0,.1-.1.2,0,0-.1,0-.2,0-.1,0-.3,0-.4-.1-.2,0-.4-.2-.7-.3-.3-.1-.5-.2-.6-.3-.1,0-.3-.2-.3-.2,0,0-.1-.2-.1-.2,0,0,0-.2,0-.2l.3-3.4c0-.4,0-.7,0-1,0-.3,0-.6-.1-.8,0-.2-.2-.4-.3-.6s-.4-.3-.6-.4l-.8-.4-2.3,4.9c0,0,0,.1-.1.2,0,0-.2,0-.3,0-.1,0-.2,0-.4,0-.2,0-.4-.1-.6-.2-.2-.1-.4-.2-.6-.3-.1,0-.3-.2-.3-.3,0,0-.1-.1-.1-.2,0,0,0-.1,0-.2l5.4-11.7c.1-.3.3-.5.5-.5.2,0,.4,0,.6,0l3.1,1.5c.3.1.6.3.8.4s.4.2.5.3c.5.3.8.6,1.1,1,.3.4.5.7.7,1.2.1.4.2.9.1,1.3,0,.5-.2.9-.4,1.5-.2.4-.4.8-.7,1.1-.3.3-.6.6-.9.7-.3.2-.7.3-1.1.4-.4,0-.8,0-1.2,0,.1.2.3.4.4.6,0,.2.2.4.2.7s0,.5,0,.8,0,.6,0,1l-.2,3c0,.3,0,.5,0,.6,0,.1,0,.2,0,.3Zm.9-10.2c.2-.4.3-.8.2-1.2s-.2-.7-.6-1c-.1,0-.2-.2-.4-.3-.1,0-.4-.2-.6-.3l-1.1-.5-1.7,3.6,1.2.6c.3.2.7.3,1,.3.3,0,.6,0,.8,0,.2,0,.5-.2.7-.4s.4-.4.5-.7Z" style="fill:#fff; stroke-width:0px;"/><path d="m215.5,65.8c-.1.2-.2.3-.3.4,0,.1-.2.2-.3.3,0,0-.1,0-.2.1,0,0-.1,0-.2,0,0,0-.2-.2-.3-.4,0-.2-.2-.5-.4-.8-.2-.3-.4-.6-.8-1-.3-.4-.7-.7-1.2-1-.5-.3-1.1-.6-1.7-.6-.6,0-1.1,0-1.7.1-.5.2-1.1.5-1.6.9-.5.4-.9.9-1.3,1.5-.4.7-.7,1.3-.9,2-.2.6-.2,1.2-.1,1.8s.3,1,.6,1.5c.3.5.7.8,1.2,1.2.3.2.5.3.8.4.3,0,.6.2.9.2l1.8-2.8-2.1-1.4c-.1,0-.1-.2-.1-.4,0-.2.2-.4.4-.8.1-.2.2-.3.3-.4,0-.1.2-.2.2-.2,0,0,.1,0,.2,0,0,0,.1,0,.2,0l3.8,2.4c0,0,.2.1.2.2s0,.2,0,.3c0,.1,0,.2,0,.3,0,.1,0,.2-.2.4l-3.1,4.7c-.1.2-.3.3-.4.4-.1,0-.3.1-.6,0-.2,0-.5-.1-.9-.2-.3,0-.7-.2-1-.3-.3-.1-.7-.3-1-.4-.3-.2-.6-.3-.9-.5-.9-.6-1.6-1.2-2.1-2-.5-.7-.9-1.5-1-2.3-.2-.8-.1-1.7,0-2.6.2-.9.6-1.8,1.2-2.8.6-1,1.3-1.8,2.1-2.4.8-.6,1.6-1,2.4-1.2.9-.2,1.7-.2,2.6,0,.9.2,1.8.5,2.7,1.1.5.3.9.6,1.3,1,.4.3.6.6.9.9.2.3.4.6.5.8.1.2.2.4.2.6s0,.3,0,.5c0,.2-.2.4-.4.7Z" style="fill:#fff; stroke-width:0px;"/><path d="m217.5,81.5c-.1.2-.3.3-.4.4-.1,0-.2.2-.3.2,0,0-.2,0-.2,0,0,0-.1,0-.2,0l-5.1-4.3c-.2-.1-.3-.3-.3-.5,0-.2,0-.4.3-.7l8-9.4c.2-.2.4-.4.6-.4s.4,0,.6.2l5.1,4.3s0,0,0,.1c0,0,0,.1,0,.2s0,.2-.2.3c0,.1-.2.3-.3.4-.1.2-.3.3-.4.4-.1,0-.2.2-.3.2,0,0-.2,0-.2,0,0,0-.1,0-.2,0l-3.6-3.1-2.2,2.6,3.1,2.6s0,0,0,.2c0,0,0,.1,0,.2,0,0,0,.2-.2.3,0,.1-.2.3-.3.4-.1.2-.3.3-.4.4-.1,0-.2.2-.3.2,0,0-.2,0-.2,0,0,0-.1,0-.2,0l-3.1-2.6-2.6,3.1,3.7,3.1s0,0,0,.2c0,0,0,.1,0,.2,0,0,0,.2-.2.3,0,.1-.2.3-.3.4Z" style="fill:#fff; stroke-width:0px;"/><path d="m226.3,91.1c-.1.1-.3.2-.4.2-.1,0-.3,0-.4,0-.1,0-.2,0-.4-.1-.1,0-.2-.1-.3-.2l-.8-.9c-.2-.2-.3-.3-.4-.5,0-.2-.1-.3-.1-.5,0-.2,0-.4.1-.7,0-.3.2-.6.4-.9l2.7-6.9c.2-.4.3-.8.6-1.3.2-.5.4-.9.6-1.3h0c-.4.4-.7.7-1.1,1.1-.4.4-.8.7-1.2,1.1l-5.5,5c0,0-.1,0-.2,0,0,0-.1,0-.2,0,0,0-.2-.1-.3-.2-.1-.1-.3-.2-.4-.4-.2-.2-.3-.3-.4-.5,0-.1-.1-.2-.2-.3,0,0,0-.2,0-.2,0,0,0-.1.1-.2l9.5-8.5c.3-.2.5-.3.8-.3.3,0,.5.1.7.3l1,1.1c.2.2.3.4.4.5,0,.2.1.3.1.5,0,.2,0,.4,0,.6s-.2.5-.3.8l-2.1,5.4c-.1.3-.3.6-.4,1s-.3.6-.4.9c-.1.3-.3.6-.4.9-.1.3-.3.6-.4.9h0c.4-.4.8-.7,1.2-1.1.4-.4.8-.7,1.2-1.1l4.9-4.5c0,0,.1,0,.2,0,0,0,.2,0,.3,0,0,0,.2.1.3.2.1.1.3.2.4.4.2.2.3.3.4.5s.2.2.2.3c0,0,0,.2,0,.2,0,0,0,.1-.1.2l-9.5,8.5Z" style="fill:#fff; stroke-width:0px;"/><path d="m242.7,93.8c-.2.1-.3.2-.5.3-.1,0-.2.1-.3.1s-.2,0-.2,0c0,0-.1,0-.1-.1l-1.9-2.8-9.5,6.4c0,0-.1,0-.2,0s-.2,0-.2-.1c0,0-.2-.2-.3-.3s-.2-.3-.4-.5c-.1-.2-.3-.4-.3-.6s-.1-.3-.2-.4c0-.1,0-.2,0-.3,0,0,0-.1.1-.2l9.5-6.4-1.9-2.8c0,0,0-.1,0-.2,0,0,0-.1,0-.2,0,0,.1-.2.3-.3.1,0,.3-.2.4-.3.2-.1.3-.2.5-.3.1,0,.3-.1.3-.1,0,0,.2,0,.2,0s.1,0,.1.1l5.3,7.7c0,0,0,.1,0,.2,0,0,0,.1,0,.2,0,0-.1.2-.3.3-.1.1-.3.2-.4.3Z" style="fill:#fff; stroke-width:0px;"/><path d="m234.1,104.4c0,0-.1,0-.2,0,0,0-.2,0-.2-.1,0,0-.2-.2-.3-.3-.1-.1-.2-.3-.3-.6-.1-.2-.2-.4-.3-.6,0-.2-.1-.3-.1-.4,0-.1,0-.2,0-.3,0,0,0-.1.1-.2l11.7-6.5c0,0,.1,0,.2,0,0,0,.2,0,.2.1,0,0,.2.2.3.3.1.1.2.3.3.6.1.2.2.4.3.6,0,.2.1.3.1.4,0,.1,0,.2,0,.3,0,0,0,.1-.1.2l-11.7,6.5Z" style="fill:#fff; stroke-width:0px;"/><path d="m240.2,116.5c-.2,0-.3,0-.4,0-.1,0-.3,0-.4,0-.1,0-.2-.1-.3-.2,0-.1-.2-.2-.2-.3l-.4-1.1c0-.2-.1-.4-.2-.6,0-.2,0-.4,0-.6,0-.2.2-.4.3-.6.2-.2.4-.5.6-.8l4.8-5.6c.3-.3.6-.7,1-1,.3-.4.7-.7,1-1h0c-.5.2-1,.4-1.4.6-.5.2-1,.4-1.5.6l-6.8,2.9c0,0-.1,0-.2,0,0,0-.1,0-.2-.1,0,0-.1-.2-.2-.3,0-.1-.2-.3-.3-.5,0-.2-.2-.4-.2-.6,0-.2,0-.3,0-.4,0,0,0-.2,0-.2,0,0,0,0,.2-.1l11.8-4.9c.3-.1.6-.1.8,0,.2.1.4.3.5.5l.6,1.3c.1.2.2.5.2.6,0,.2,0,.4,0,.5,0,.2-.1.4-.3.5-.1.2-.3.4-.5.6l-3.8,4.4c-.2.3-.5.5-.7.8-.2.3-.4.5-.7.7-.2.2-.5.5-.7.7-.2.2-.4.5-.7.7h0c.5-.2,1-.4,1.5-.6.5-.2,1-.4,1.5-.6l6.1-2.6c0,0,.1,0,.2,0,0,0,.1,0,.2.1,0,0,.2.2.2.3,0,.1.2.3.3.5,0,.2.2.4.2.6,0,.2,0,.3,0,.4,0,0,0,.2,0,.2,0,0,0,0-.2.1l-11.8,4.9Z" style="fill:#fff; stroke-width:0px;"/><path d="m243.7,129.4c-.2.1-.4.2-.6.3-.1,0-.3,0-.4,0,0,0-.2-.2-.2-.4s-.1-.4-.2-.8c0-.3-.1-.6-.2-.8,0-.2,0-.3,0-.4,0-.1,0-.2,0-.2,0,0,.1-.1.2-.2l2.5-1.6-1.2-4.8h-2.9c-.1-.1-.2-.2-.3-.2,0,0-.1,0-.2-.2,0,0-.1-.2-.2-.4,0-.2-.1-.4-.2-.7,0-.3-.1-.5-.1-.7,0-.2,0-.3,0-.4,0,0,.2-.1.3-.2.2,0,.4,0,.6,0l13.2.9c.1,0,.2,0,.3,0,0,0,.2.1.2.2,0,.1.1.3.2.5,0,.2.1.5.2.8,0,.4.2.7.2.9,0,.2,0,.4,0,.6,0,.1,0,.2-.1.3,0,0-.2.2-.3.2l-11.2,7.1Zm8.6-8.5h0s-6.3-.4-6.3-.4l.9,3.7,5.4-3.3Z" style="fill:#fff; stroke-width:0px;"/><path d="m68.9,172.2c-.2,0-.4,0-.5,0-.1,0-.3,0-.4,0s-.2,0-.2,0c0,0,0,0,0-.2l-.9-4.5-3.6.7.8,4.2c0,0,0,.1,0,.2,0,0,0,.1-.2.2,0,0-.2.1-.3.2-.1,0-.3,0-.5.1s-.4,0-.5,0c-.1,0-.3,0-.4,0,0,0-.2,0-.2,0,0,0,0,0,0-.2l-.8-4.2-5,1c0,0-.1,0-.2,0,0,0-.1,0-.2-.2,0-.1-.1-.2-.2-.4,0-.2-.1-.4-.2-.7,0-.3,0-.5-.1-.7,0-.2,0-.3,0-.5,0-.1,0-.2,0-.3,0,0,.1,0,.2-.1l12.2-2.4c.3,0,.5,0,.7.1.2.1.3.3.3.6l1.3,6.5c0,0,0,.1,0,.2,0,0,0,.1-.2.2,0,0-.2.1-.3.2-.1,0-.3,0-.5.1Z" style="fill:#fff; stroke-width:0px;"/><path d="m65.8,187.3c-.8.3-1.6.4-2.3.3-.7,0-1.4-.2-1.9-.5-.6-.3-1.1-.8-1.6-1.4-.5-.6-.8-1.4-1.1-2.3-.3-.8-.4-1.6-.4-2.4,0-.7.1-1.4.4-2,.3-.6.7-1.1,1.2-1.6.5-.4,1.2-.8,2.1-1.1l7.9-2.6c0,0,.1,0,.2,0,0,0,.1,0,.2.2,0,0,.1.2.2.4,0,.2.2.4.2.7,0,.3.1.5.2.7,0,.2,0,.3,0,.4,0,.1,0,.2,0,.3,0,0,0,.1-.2.1l-7.7,2.5c-.5.2-.9.4-1.3.6-.3.3-.6.5-.8.9-.2.3-.3.7-.3,1.1,0,.4,0,.8.2,1.2.1.4.3.8.6,1.1.2.3.5.5.8.7.3.2.7.2,1.1.3.4,0,.8,0,1.3-.2l7.8-2.5c0,0,.1,0,.2,0,0,0,.1,0,.2.2,0,0,.1.2.2.4,0,.2.2.4.2.6,0,.3.1.5.2.7,0,.2,0,.3,0,.4s0,.2,0,.3c0,0,0,0-.2.1l-7.8,2.5Z" style="fill:#fff; stroke-width:0px;"/><path d="m78,195.9c-.2,0-.3.2-.5.2-.1,0-.3,0-.4,0,0,0-.2,0-.2,0,0,0-.1,0-.1-.1l-1.5-3.2-10,4.7c0,0-.1,0-.2,0,0,0-.1,0-.2-.2s-.2-.2-.3-.4c0-.2-.2-.4-.3-.6-.1-.2-.2-.5-.3-.6,0-.2,0-.3-.1-.4,0-.1,0-.2,0-.3,0,0,0-.1.1-.1l10-4.7-1.5-3.2c0,0,0-.1,0-.2,0,0,0-.1.1-.2,0,0,.2-.1.3-.2.1,0,.3-.2.5-.2.2,0,.4-.2.5-.2.1,0,.3,0,.4,0,0,0,.2,0,.2,0,0,0,.1,0,.1.1l4.3,9c0,0,0,.1,0,.2s0,.1-.1.2c0,0-.2.1-.3.2-.1,0-.3.2-.5.3Z" style="fill:#fff; stroke-width:0px;"/><path d="m75.9,208.4c-.6.4-1.2.6-1.8.7-.6,0-1.2,0-1.8-.2-.6-.2-1.1-.5-1.6-1-.5-.4-.9-1-1.3-1.6-.3-.4-.5-.8-.6-1.2-.2-.4-.3-.8-.4-1.1,0-.3-.1-.6-.1-.9,0-.2,0-.4,0-.6,0-.1.1-.3.2-.4.1-.1.3-.3.6-.4.2-.1.3-.2.5-.3.1,0,.2-.1.3-.1,0,0,.2,0,.2,0,0,0,.1,0,.2.1,0,0,0,.2,0,.5,0,.2,0,.5,0,.8,0,.3.1.7.2,1.1.1.4.3.8.6,1.3.2.3.4.5.6.7.2.2.4.3.7.4.2,0,.5.1.7,0,.2,0,.5-.1.7-.3.3-.2.4-.4.5-.6,0-.3.1-.6.1-.9,0-.3,0-.7,0-1.1,0-.4-.1-.8-.2-1.2,0-.4,0-.8,0-1.2,0-.4,0-.8.1-1.2.1-.4.3-.8.5-1.1.3-.4.6-.7,1.1-1,.6-.4,1.1-.6,1.7-.6.6,0,1.1,0,1.6.2.5.2,1,.5,1.4.9.4.4.8.9,1.2,1.4.2.3.3.6.5.9.1.3.2.6.3.9,0,.3.1.6.2.8,0,.2,0,.4,0,.5,0,0,0,.2,0,.2,0,0,0,.1-.1.2,0,0-.1.1-.2.2s-.2.2-.4.3c-.2.1-.3.2-.4.3s-.2.1-.3.1-.2,0-.2,0c0,0-.1,0-.2-.1,0,0,0-.2,0-.4,0-.2,0-.4,0-.7,0-.3-.1-.6-.2-.9,0-.3-.3-.7-.5-1-.2-.3-.3-.5-.5-.6-.2-.2-.4-.3-.6-.3-.2,0-.4,0-.6,0-.2,0-.4.1-.6.2-.3.2-.4.4-.5.6,0,.3-.1.6-.1.9,0,.3,0,.7.1,1.1,0,.4.1.8.2,1.2,0,.4,0,.8.1,1.2s0,.8-.1,1.2c-.1.4-.3.8-.5,1.1-.3.4-.6.7-1.1,1Z" style="fill:#fff; stroke-width:0px;"/><path d="m82.6,221.4c-.1.2-.3.4-.4.5s-.2.2-.3.1c-.1,0-.2,0-.4-.2-.1-.1-.3-.4-.6-.6-.2-.3-.4-.5-.5-.7-.1-.2-.2-.3-.3-.4,0-.1,0-.2,0-.3,0,0,0-.1,0-.2l1.5-2.5-3.4-4-2.6,1.1c0,0-.2,0-.3,0,0,0-.2,0-.3,0,0,0-.2-.2-.3-.3s-.3-.3-.5-.6c-.2-.3-.4-.5-.5-.6-.1-.2-.2-.3-.1-.4,0-.1,0-.2.2-.3.1,0,.3-.2.6-.3l12.1-4.6c.1,0,.2,0,.3,0,0,0,.2,0,.3.1.1,0,.2.2.4.4.2.2.4.4.6.7.3.3.5.6.7.8.2.2.3.4.3.5,0,.1,0,.2,0,.3,0,0,0,.2-.1.3l-6.4,11.2Zm3.5-11.4h0s-5.7,2.2-5.7,2.2l2.6,3.1,3.1-5.3Z" style="fill:#fff; stroke-width:0px;"/><path d="m90.9,228.5c-.1.2-.3.3-.4.4-.1,0-.2.2-.3.2,0,0-.2,0-.2,0,0,0-.1,0-.2,0l-4.9-4.3c-.2-.2-.3-.3-.3-.6,0-.2,0-.4.3-.7l8.2-9.4c0,0,.1,0,.2,0,0,0,.2,0,.3,0,.1,0,.2.1.4.2.2.1.3.3.5.4.2.2.4.3.5.5.1.1.2.3.3.4s0,.2,0,.3c0,0,0,.1,0,.2l-7.3,8.3,3.3,2.9c0,0,0,.1.1.2,0,0,0,.1,0,.2,0,0,0,.2-.2.3,0,.1-.2.3-.3.4Z" style="fill:#fff; stroke-width:0px;"/><path d="m103.6,232c-.2.3-.4.6-.6.7-.2,0-.3,0-.5,0l-3.9-2.4c-.2,0-.2-.2-.2-.4,0-.2.1-.4.3-.8.2-.3.4-.6.5-.6s.3,0,.5,0l3.9,2.4c0,0,.1.1.2.2,0,0,0,.1,0,.2,0,0,0,.2,0,.3,0,.1-.1.3-.2.4Z" style="fill:#fff; stroke-width:0px;"/><path d="m120.6,232c0,.2-.2.4-.2.5,0,.1-.1.2-.2.3,0,0-.1.1-.2.1,0,0-.1,0-.2,0l-4.3-1.8-1.4,3.4,4,1.7c0,0,.1,0,.1.1,0,0,0,.1,0,.2,0,0,0,.2,0,.3,0,.1,0,.3-.2.5,0,.2-.2.4-.2.5,0,.1-.1.2-.2.3,0,0-.1.1-.2.1s-.1,0-.2,0l-4-1.7-2,4.7c0,0,0,.1-.1.2,0,0-.2,0-.3,0s-.3,0-.4,0c-.2,0-.4-.1-.7-.2-.3-.1-.5-.2-.6-.3-.2,0-.3-.2-.4-.3,0,0-.1-.2-.2-.2,0,0,0-.1,0-.2l4.8-11.5c.1-.3.3-.5.5-.5s.4,0,.6,0l6.1,2.6c0,0,.1,0,.1.1,0,0,0,.1,0,.2,0,0,0,.2,0,.4,0,.1-.1.3-.2.5Z" style="fill:#fff; stroke-width:0px;"/><path d="m131.5,242.9c-.2.8-.5,1.5-1,2.1-.4.6-.9,1-1.5,1.3-.6.3-1.3.5-2,.5s-1.6,0-2.5-.3c-.9-.2-1.6-.6-2.2-.9-.6-.4-1.1-.9-1.5-1.4-.4-.6-.6-1.2-.6-1.9,0-.7,0-1.5.2-2.3l2.2-8c0,0,0-.1.1-.2,0,0,.1,0,.3,0,.1,0,.3,0,.4,0,.2,0,.4,0,.7.2.3,0,.5.1.7.2.2,0,.3.1.4.2,0,0,.2.1.2.2,0,0,0,.1,0,.2l-2.1,7.8c-.1.5-.2,1-.2,1.4,0,.4.1.8.3,1.1s.4.6.7.8c.3.2.7.4,1.1.5.4.1.8.2,1.2.1.4,0,.7-.1,1-.3.3-.2.6-.4.8-.8.2-.3.4-.7.5-1.2l2.2-8c0,0,0-.1.1-.2,0,0,.1,0,.3,0,.1,0,.3,0,.4,0,.2,0,.4,0,.7.2.3,0,.5.1.6.2.2,0,.3.1.4.2,0,0,.2.1.2.2s0,.1,0,.2l-2.2,7.9Zm-1.5-13.2c.1,0,.2-.1.3-.2.1,0,.2,0,.4,0,.1,0,.3,0,.5,0s.4,0,.7.2c.3,0,.6.2.7.3.2,0,.3.2.3.3,0,0,0,.2,0,.2,0,0-.1.1-.3.2l-2.9,1.4c0,0-.2,0-.3,0s-.2,0-.3,0c-.1,0-.2,0-.4,0-.2,0-.3,0-.6-.1-.2,0-.4-.1-.6-.2s-.2-.1-.3-.2c0,0,0-.1,0-.2,0,0,.1-.1.2-.2l2.5-1.6Z" style="fill:#fff; stroke-width:0px;"/><path d="m145.4,237.6c0,.2,0,.4-.1.5,0,.1,0,.3-.1.3,0,0-.1.1-.2.2,0,0-.1,0-.2,0l-3.5-.6-1.7,10.9c0,0,0,.1-.1.2,0,0-.1,0-.3,0s-.3,0-.4,0c-.2,0-.4,0-.7,0-.3,0-.5,0-.7-.1-.2,0-.3-.1-.4-.2-.1,0-.2-.1-.2-.2,0,0,0-.1,0-.2l1.7-10.9-3.5-.6c0,0-.1,0-.2,0,0,0,0-.1,0-.2,0,0,0-.2,0-.4,0-.1,0-.3,0-.5,0-.2,0-.4.1-.5,0-.1,0-.3.1-.3,0,0,.1-.1.2-.2,0,0,.1,0,.2,0l9.8,1.6c0,0,.1,0,.2,0,0,0,0,.1.1.2,0,0,0,.2,0,.4,0,.1,0,.3,0,.5Z" style="fill:#fff; stroke-width:0px;"/><path d="m156.4,246.9c0,.5-.1.9-.3,1.3s-.4.7-.6,1c-.3.3-.6.5-.9.7-.4.2-.7.3-1.2.5-.4.1-.9.2-1.3.2-.5,0-1,0-1.5,0l-3.7-.3c-.2,0-.4-.1-.6-.2-.2-.1-.2-.4-.2-.7l.8-11.9c0-.3.1-.5.3-.7s.4-.2.6-.2l3.5.2c.9,0,1.6.2,2.2.4.6.2,1.1.4,1.5.7.4.3.7.7.9,1.1.2.5.3,1,.2,1.6,0,.3,0,.6-.2.9-.1.3-.3.5-.4.8-.2.2-.4.4-.7.6-.3.2-.5.3-.9.4.4,0,.8.2,1.1.4.3.2.6.4.8.7.2.3.4.6.5,1,.1.4.2.8.1,1.3Zm-3-.1c0-.3,0-.6-.1-.9,0-.3-.2-.5-.4-.7-.2-.2-.5-.3-.8-.4-.3-.1-.7-.2-1.3-.2h-1.7c0-.1-.3,3.8-.3,3.8h2.1c.4.2.7.2,1,0,.3,0,.5-.2.7-.3s.4-.3.5-.6c.1-.2.2-.5.2-.8Zm-.3-5.9c0-.3,0-.5,0-.7,0-.2-.2-.4-.4-.6s-.4-.3-.6-.4c-.3,0-.6-.2-1.1-.2h-1.4c0-.1-.3,3.4-.3,3.4h1.6c.4.1.7.1,1,0,.3,0,.5-.2.6-.3.2-.2.3-.3.4-.6,0-.2.2-.4.2-.7Z" style="fill:#fff; stroke-width:0px;"/><path d="m171.9,241.7c.2,1.1.2,2.2,0,3.1-.2.9-.5,1.7-.9,2.5-.5.7-1.1,1.3-1.9,1.7-.8.5-1.7.8-2.8.9-1.1.2-2.1.2-2.9,0-.9-.2-1.6-.5-2.2-1-.6-.5-1.1-1.1-1.5-2s-.7-1.8-.9-3c-.2-1.1-.2-2.1,0-3,.2-.9.5-1.7.9-2.4.5-.7,1.1-1.3,1.9-1.7.8-.5,1.7-.8,2.8-.9,1.1-.2,2-.2,2.9,0,.9.1,1.6.5,2.2.9.6.5,1.1,1.1,1.6,2,.4.8.7,1.8.9,3Zm-3,.6c-.1-.7-.3-1.4-.5-1.9-.2-.6-.5-1-.8-1.4-.3-.4-.8-.6-1.3-.8-.5-.2-1.1-.2-1.8,0-.7.1-1.3.3-1.7.6-.4.3-.8.7-1,1.2s-.4,1-.4,1.6c0,.6,0,1.2,0,1.8.1.7.3,1.4.5,2,.2.6.5,1,.8,1.4.3.4.8.6,1.2.8.5.2,1.1.2,1.8,0,.7-.1,1.3-.3,1.7-.6.4-.3.8-.7,1-1.2.2-.5.3-1,.4-1.6,0-.6,0-1.2-.1-1.9Z" style="fill:#fff; stroke-width:0px;"/><path d="m183.4,244.7c0,.2,0,.4.1.5,0,.1,0,.3,0,.4,0,.1,0,.2,0,.2,0,0,0,0-.2.1l-6.3,1.6c-.2,0-.4,0-.6,0-.2,0-.3-.3-.4-.6l-3.1-12.1c0,0,0-.1,0-.2,0,0,0-.1.2-.2,0,0,.2-.1.4-.2s.4-.1.7-.2c.3,0,.5-.1.7-.1.2,0,.3,0,.4,0,.1,0,.2,0,.3,0,0,0,0,0,.1.2l2.7,10.7,4.3-1.1c0,0,.1,0,.2,0,0,0,.1,0,.2.2,0,0,.1.2.2.3s.1.3.2.5Z" style="fill:#fff; stroke-width:0px;"/><path d="m199.5,232.4c.5,1.2.7,2.2.8,3.2,0,1-.1,1.8-.5,2.6s-.9,1.4-1.7,2c-.7.6-1.7,1.1-2.8,1.6l-3.1,1.3c-.2,0-.4.1-.6,0-.2,0-.4-.2-.5-.5l-4.6-11c-.1-.3-.1-.5,0-.7,0-.2.3-.3.5-.4l3.3-1.4c1.2-.5,2.2-.8,3.1-.8.9,0,1.8,0,2.5.3.8.3,1.5.8,2.1,1.4.6.6,1.1,1.5,1.5,2.5Zm-2.7,1.2c-.2-.6-.6-1.1-.9-1.6-.4-.5-.8-.8-1.3-1.1-.5-.2-1-.4-1.6-.4-.6,0-1.3.2-2.1.5l-1.3.6,3.6,8.6,1.4-.6c.7-.3,1.3-.6,1.7-1,.4-.4.7-.8.9-1.3.2-.5.2-1.1.2-1.7,0-.6-.2-1.3-.5-2Z" style="fill:#fff; stroke-width:0px;"/><path d="m212,232.2c.1.2.2.3.2.5,0,.1,0,.2,0,.3s0,.2,0,.2c0,0,0,.1-.1.1l-6.2,3.5c-.2.1-.4.2-.6.1-.2,0-.4-.2-.5-.5l-5.9-10.4c-.2-.3-.2-.5-.1-.7,0-.2.2-.4.4-.5l6.1-3.5c0,0,.1,0,.2,0,0,0,.1,0,.2,0,0,0,.2.1.2.3,0,.1.2.3.3.4,0,.2.2.3.2.5,0,.1,0,.2,0,.3,0,0,0,.2,0,.2,0,0,0,.1-.1.1l-4.4,2.5,1.7,2.9,3.7-2.1c0,0,.1,0,.2,0,0,0,.1,0,.2,0,0,0,.1.1.2.2,0,.1.2.3.3.4.1.2.2.3.2.5,0,.1,0,.2,0,.3,0,0,0,.2,0,.2,0,0,0,.1-.1.1l-3.7,2.1,1.9,3.4,4.4-2.5c0,0,.1,0,.2,0,0,0,.1,0,.2,0,0,0,.2.1.2.2,0,.1.2.3.3.4Z" style="fill:#fff; stroke-width:0px;"/><path d="m223.8,219.3c.5.6.8,1.1.9,1.7.1.6.1,1.2,0,1.8-.1.6-.4,1.1-.7,1.7-.4.5-.8,1.1-1.4,1.5-.4.3-.7.6-1.1.8-.4.2-.7.4-1,.5-.3.1-.6.2-.8.3-.2,0-.4,0-.6,0-.1,0-.3,0-.4-.2-.1-.1-.3-.3-.5-.5-.1-.2-.3-.3-.3-.4,0-.1-.1-.2-.2-.3,0,0,0-.2,0-.2,0,0,0-.1.1-.2,0,0,.2-.1.4-.1.2,0,.5,0,.8-.2.3,0,.7-.2,1-.4.4-.2.8-.4,1.2-.8.3-.2.5-.5.6-.7.2-.2.3-.5.3-.7,0-.2,0-.5,0-.7,0-.2-.2-.5-.4-.7-.2-.2-.4-.4-.7-.4-.3,0-.6,0-.9,0-.3,0-.7.1-1,.2-.4.1-.8.2-1.2.3-.4.1-.8.2-1.2.3-.4,0-.8,0-1.2,0-.4,0-.8-.2-1.2-.4-.4-.2-.8-.5-1.1-1-.4-.5-.7-1-.8-1.6-.1-.5-.1-1.1,0-1.6.1-.5.3-1,.7-1.5.3-.5.8-1,1.3-1.4.3-.2.5-.4.8-.6.3-.2.6-.3.8-.4s.5-.2.8-.3c.2,0,.4,0,.5,0s.2,0,.2,0c0,0,.1,0,.2.1,0,0,.1.1.2.2,0,0,.2.2.3.3.1.2.2.3.3.4,0,.1.1.2.2.3,0,0,0,.2,0,.2,0,0,0,.1-.1.2,0,0-.2,0-.4.1-.2,0-.4,0-.7.2-.3,0-.6.2-.9.3-.3.1-.6.3-.9.6-.2.2-.4.4-.6.6-.1.2-.2.4-.3.6,0,.2,0,.4,0,.6,0,.2.2.4.3.5.2.2.4.4.7.4.3,0,.6,0,.9,0,.3,0,.7-.1,1.1-.3.4-.1.8-.2,1.2-.3.4-.1.8-.2,1.2-.3.4,0,.8,0,1.2,0,.4,0,.8.2,1.2.4.4.2.8.5,1.1.9Z" style="fill:#fff; stroke-width:0px;"/><path d="m235.7,210.9c.2.1.4.2.6.3.1,0,.2.2.2.3,0,.1,0,.2-.2.4-.1.2-.3.4-.5.6-.2.3-.4.5-.6.6-.1.1-.3.3-.4.3,0,0-.2,0-.3,0,0,0-.2,0-.2,0l-2.7-1.1-3.5,4,1.4,2.4c0,0,0,.2.1.3,0,0,0,.2,0,.3,0,.1-.1.2-.2.4-.1.2-.3.3-.5.6-.2.3-.4.4-.5.6-.1.1-.3.2-.4.2-.1,0-.2,0-.3-.2,0-.1-.2-.3-.3-.5l-6.2-11.3c0-.1,0-.2-.1-.3,0,0,0-.2,0-.3,0-.1.2-.3.3-.4.1-.2.3-.4.6-.7.3-.3.5-.6.7-.8.2-.2.3-.3.5-.4.1,0,.2-.1.3-.1,0,0,.2,0,.3,0l12,4.8Zm-11.8-1.8h0s3,5.4,3,5.4l2.7-3-5.7-2.4Z" style="fill:#fff; stroke-width:0px;"/><path d="m241.6,201.7c.2.1.3.2.4.3.1,0,.2.2.3.3,0,0,0,.2,0,.2,0,0,0,.1,0,.2l-3.5,5.4c-.1.2-.3.3-.5.4-.2,0-.4,0-.7-.2l-10.4-6.8c0,0,0,0-.1-.2,0,0,0-.2,0-.3,0-.1,0-.2.2-.4s.2-.4.4-.6c.2-.2.3-.4.4-.6.1-.1.2-.2.3-.3,0,0,.2-.1.2-.1,0,0,.1,0,.2,0l9.2,6,2.4-3.7c0,0,0-.1.2-.1s.1,0,.2,0c0,0,.2,0,.3.1.1,0,.3.2.5.3Z" style="fill:#fff; stroke-width:0px;"/><path d="m230.9,186.7c0-.1,0-.2-.1-.4,0-.1,0-.2,0-.4,0-.1,0-.3.1-.5,0-.2.2-.4.3-.6.1-.3.3-.5.4-.7.1-.2.2-.2.3-.3,0,0,.2,0,.2,0,0,0,.1.2.2.3l.9,3.1c0,0,0,.2,0,.3,0,0,0,.2,0,.3,0,.1,0,.2-.1.4,0,.1-.1.3-.2.5-.1.2-.2.4-.3.5,0,.1-.2.2-.2.2s-.1,0-.2,0c0,0-.1-.1-.2-.2l-1.1-2.7Zm11.9-1.1c1,.5,1.9,1,2.6,1.7.7.6,1.2,1.4,1.5,2.1.3.8.5,1.6.4,2.5,0,.9-.3,1.9-.8,2.9-.5,1-1,1.8-1.6,2.4-.6.6-1.3,1.1-2,1.3-.7.3-1.6.3-2.5.2-.9-.1-1.9-.4-3-.9-1-.5-1.9-1-2.5-1.6-.7-.6-1.2-1.3-1.5-2.1-.3-.8-.5-1.6-.4-2.5,0-.9.3-1.9.8-2.9.4-1,1-1.8,1.6-2.4.6-.6,1.3-1.1,2-1.3.7-.3,1.6-.3,2.5-.2.9.1,1.9.4,3,.9Zm-1.1,2.8c-.7-.3-1.3-.5-1.9-.7-.6-.1-1.1-.2-1.6,0-.5,0-.9.3-1.4.6-.4.3-.8.8-1,1.4-.3.6-.4,1.2-.4,1.8,0,.5.2,1,.5,1.5s.6.8,1.1,1.2c.5.3,1,.7,1.6.9.7.3,1.3.5,1.9.7.6.1,1.1.2,1.6.1.5,0,.9-.3,1.3-.6.4-.3.7-.8,1-1.5.3-.6.4-1.2.4-1.8,0-.5-.2-1-.5-1.5-.3-.4-.7-.8-1.1-1.2-.5-.4-1-.7-1.6-.9Z" style="fill:#fff; stroke-width:0px;"/><path d="m252.6,173.3c.2,0,.3.1.4.2.1,0,.2.2.2.3,0,.1,0,.2,0,.4,0,.1,0,.3,0,.4l-.3,1.2c0,.2-.1.5-.2.6,0,.2-.2.3-.4.4-.2.1-.4.2-.6.3-.3,0-.6.2-1,.2l-7.1,1.7c-.4,0-.9.2-1.4.3-.5,0-.9.2-1.4.2h0c.5.1,1,.2,1.5.4.5.1,1,.2,1.5.4l6.9,1.9c0,0,.1,0,.2.1,0,0,0,.1,0,.2,0,.1,0,.2,0,.4,0,.2,0,.4-.1.6,0,.2-.1.4-.2.6,0,.2-.1.3-.2.4,0,0-.1.1-.2.2,0,0-.1,0-.2,0l-11.9-3.2c-.3,0-.5-.2-.6-.5-.1-.2-.1-.5,0-.8l.4-1.5c0-.3.2-.5.2-.7,0-.2.2-.3.4-.4.1-.1.3-.2.5-.3.2,0,.5-.1.8-.2l5.6-1.3c.3,0,.7-.1,1-.2.3,0,.6-.1,1-.2.3,0,.6-.1.9-.2.3,0,.6-.1.9-.2h0c-.5-.1-1-.2-1.5-.4-.5-.1-1-.3-1.5-.4l-6.2-1.7c0,0-.1,0-.2-.1,0,0,0-.1,0-.2,0-.1,0-.2,0-.4s0-.4.1-.6c0-.2.1-.4.2-.6s.1-.3.2-.4c0,0,.1-.1.2-.1,0,0,.1,0,.2,0l11.9,3.2Z" style="fill:#fff; stroke-width:0px;"/><circle cx="154.3" cy="146.5" r="80.8" style="fill:#fff; stroke-width:0px;"/><g style="opacity:.3;"><path d="m212.3,107.5s0,0,0,0m-.6,73.5h0m-1.1,1.4h0m1-1.3h0m0,0h0m0,0h0" style="fill:none; stroke:#17170f; stroke-linecap:round; stroke-linejoin:round; stroke-width:0px;"/><path d="m235.5,150.7c0,.9,0,1.9-.1,2.8-.1,1.8-.3,3.7-.5,5.5,0,.3,0,.5-.1.8-.1,0-.3,0-.4,0,0,0-.2-.1-.3-.1-.4,0-.7,0-1.1,0-.2,0-.4,0-.6,0h0c0,0-.1,0-.2,0-1.5,0-5,.6-6-.8-.5-.7-.6-1.6-.7-2.5-.7-5.5-2.8-10.8-5.3-15.7-1.3-2.5-2.7-4.9-4.2-7.3-1.5-2.5-2.8-3.8-2.5-6.7.3-2.4.4-4.9.5-7.3,0-4.9-.3-9.9-1.1-14.7-.1-.9-.3-1.7-.5-2.6,0,0,.1,0,.2,0,.3-.2.6-.4.9-.5.9-.3,1.9-.5,2.8-.6.8,0,1.6-.1,2.3-.2.4,0,.8,0,1.1,0,1.8,2.5,3.5,5,5.1,7.7,1.7,2.9,3.2,6,4.5,9.1,1.3,3.2,2.5,6.5,3.4,9.8.9,3.4,1.6,6.8,2.1,10.2.5,3.5.7,7.1.7,10.6,0,.9,0,1.8,0,2.6Zm-2.8,18.5c-.9,3.4-2.1,6.7-3.4,10-1.4,3.2-2.9,6.3-4.6,9.2-1.8,3-3.8,6-5.9,8.7-2.1,2.7-4.3,5.2-6.7,7.6-2.4,2.4-5,4.7-7.8,6.8-.3.3-.7.5-1,.8-.2,0-.5-.1-.8-.2-.3,0-.6-.1-.9-.2-.4,0-.7-.2-1.1-.3,0,0,0,0,0,0,0-.2,0-.4,0-.6,0-.2-.3-.3-.5-.3,0,0-.1,0-.2,0s-.1,0-.2,0c0-.1,0-.2,0-.3,0-.2.1-.4.2-.6.4-1.1.8-2.2,1.2-3.3.4-1.3.9-2.7,1.2-4,.3-1,.6-2.1.8-3.1.1-.6.3-1.2.4-1.8.6-2.5,1-5.1,1.3-7.7,0,0,0,0,0,0,0,0,.1,0,.2-.1,0,0,0,0,.1-.1,0,0,.1-.1.2-.2.2-.2.3-.3.5-.5,0,0,0-.2,0-.2,0,0,0,0,0,0,.3-.4.7-.8,1-1.2.7-.9,1.3-1.7,2-2.6.5-.7,1.1-1.4,1.6-2.1,0,0,0,0,0,0,0,0,0,0,0,0,0,0,0,0,0,0,0,0,0,0,0,0,0,0,0,0,0,0,0,0,0,0,0,0,0,0,0,0,0,0,0,0,0,0,0,0t0,0c.3-.4.7-.9,1-1.3,0,0,0,0,0,0,0,0,0,0,0,0,0,0,0,0,0,0h0s0,0,0,0h0s0,0,0,0c0,0,0,0,0,0h0s0,0,0,0c0,0,0,0,0,0s0,0,0,0c0,0,0,0,0,0h0s0,0,0,0t0,0s0,0,0,0c0,0,0,0,0,0h0s0,0,0,0c0,0,0,0,0,0,0,0,0,0,0,0,0,0,0,0,0,0t0,0s0,0,0,0t0,0s0,0,0,0c0,0,0,0,0,0h0s0,0,0,0c0,0,0,0,0,0,0,0,0,0,0,0t0,0h0s0,0,0,0c0,0,0,0,0,0h0c.3-.4.7-.8,1-1.3,0,0,0,0,0,0,0,0,0,0,0,0,0,0,0,0,0,0,0,0,0,0,0,0,0,0,0,0,0,0,0,0,0,0,0,0,.3-.4.7-.8,1-1.3,0,0,0,0,0,0,0,0,0,0,0,0,0,0,0,0,0,0,0,0,0,0,0,0h0s0,0,0,0c0,0,0,0,0,0,0,0,0,0,0,0,0,0,0,0,0,0,.3-.4.7-.9,1-1.3,0,0,0,0,0,0,0,0,0,0,0,0,0,0,0,0,0,0,0,0,0,0,0,0,1.2-1.6,2.5-3.2,3.7-4.8.6-.8,1.3-1.7,1.9-2.5.6-.8,1.1-1.5,1.7-2.2.6-.8,1.2-1.6,1.8-2.3.6-.8,1.2-1.7,1.8-2.5.5-.7,1-1.4,1.5-2.1,0,0,0-.2,0-.3.6,0,1.1,0,1.7,0,1.1,0,2.1,0,3.2,0h.2s0,0,0,0c.2,0,.3,0,.5,0,.4,0,.8,0,1.1,0,.1,0,.2,0,.3-.2.1,0,.2,0,.3,0-.5,3-1.1,6-1.9,8.9h0Zm-40,50.1s0,0,0,0c0,0,0,0,0,0h0Zm-37.1,9.5c-7.1,0-15.2-1.9-20.8-3.5-5.4-1.5-10.6-3.5-15.5-6-2.5-1.3-13.7-6.3-10.3-9.1.1,0,.3-.2.4-.3.3.2.7.4,1,.6.4.2.8.4,1.3.6,8.4,3.4,16.4,6.2,25.7,5.7,1.1,0,2.2-.1,3.2,0,3.7.7,7.4,3.7,10.8,5.3,4.2,1.9,9.1,3,13.1,5.3-2.5,1-5.5,1.3-8.7,1.3Zm-48.9-18.9c-1.2,0-4.6-2.4-6.2-4-12.3-11.8-23.5-29.9-24-47.4,4.1,8.7,11.2,15.4,16,23.6,1.1,1.8,1.8,3.7,2.7,5.7,2,4.5,4.2,8.9,6.8,13.1,1.2,2,2.5,4,3.8,5.9,0,0,0,0,0,0,1.5,2.2,1.6,3,.9,3.1Zm-17.7-33.7s0,0,0,0c0,0,0,0,0,0,0,0,0,0,0,0h0Zm-12-19.9c-2.6-8.7-2.4-19.2,1.6-26.7,1.1-2,2.6-3.7,4.2-5.4,4.4-4.5,9.5-8.4,14.7-11.9,1-.6,2-1.3,3.2-1.2,2.5,0,5.8,7.6,7.2,9.5,2.9,4.1,6,8.1,10,11.1.3.2.6.4.8.6,0,.1,0,.2-.1.3-.5,1.3-.9,2.7-1.3,4-2.8,9.3-3.8,19.2-3,28.9,0,.5,0,1.1-.1,1.6-.2.4-.6.7-1,1-3.2,2.5-6.6,4.8-10,7-1.8,1.2-6.5,5.2-8.8,4.8-1.1-.2-2-1-2.8-1.7-4.5-4.1-8-9.2-11.2-14.4-1.4-2.2-2.5-4.8-3.3-7.6Zm5-39c.5-1,.9-2,1.4-2.9,1.9-4.1,4.2-7.9,6.8-11.6,6.7-9.5,15.3-17.6,25.4-23.4,2-1.2,4.1-2.3,6.2-3.3,0,1,.1,2.1.2,3.1,0,.8.2,1.6.3,2.4.2,2-3.5,4.5-4.9,6-6.1,6.6-11,14.1-16.1,21.5-4.6,2.6-9,5.6-13.1,9-1.7,1.4-3.3,3-4.8,4.6-1.2,1.2-2.9,3.8-4.5,4.2.4-3.1,1.8-6.5,3.2-9.6Zm42.6-42.6c.4-.1.7-.2,1-.3,2.3-.9,4.7-1.8,7.2-2.5,5-1.5,10.1-2.5,15.2-3,11.6-1.1,22.9.5,34,3.9.2,0,.4.1.5.3,0,.1,0,.3,0,.4,0,2.3.9,4.6,2.4,6.4-.6-.6-5.3.2-6.3.3-1.9.1-3.8.4-5.6.6-6.3.9-12.1,2.8-18.1,4.8-.8.2-1.5.5-2.3.5-.8,0-1.5-.2-2.3-.4-4.7-1.3-9.5-2.1-14.4-2.5-4.3-.3-8.7,0-12.9-.4,0-.4-.1-.8-.2-1.1,0-.8-.2-1.6-.2-2.4,0-.7-.5-2.7-.1-3.3.3-.5,1.3-.8,2.2-1.1Zm78.8,116.3c0,0,0,.2,0,.3,0-.3,0-.7,0-1,0-.2,0-.3,0-.5.1,0,.2,0,.3,0-.1.4-.3.8-.4,1.2h0Zm-24.1,32.2c0,0-.2,0-.3,0-.2,0-.4,0-.6,0,0,0-.1,0-.2,0,.3,0,.6-.2.9-.3,0,0,.1,0,.2,0,0,.1,0,.3,0,.4h0Zm5-79.7s0,0,0,0c0,0,0,0,0,0h0s0,0,0,0c0-.1-.2-.2-.2-.3,0,0,.2.2.2.3h0Zm-1.2-1.1c0-.1,0-.2,0-.3,0,0,0,0,0,0,0,.1,0,.2,0,.3h0Zm-43.3,46.4s0,0,0,0h0Zm-1,25h0s0,0,0,0h0Zm-23.3-44.3s0,0,0,0c0,0,0,0,0,.1,0,0,0,0,0-.1h0Zm63.8,4.3s0,0-.1,0h0s.1,0,.1,0h0Zm.4,1.3c0,0-.1,0-.2,0,0,0,0,0,0,0,0,0,.1,0,.2,0h0Zm-60.3-42c.6.3,1.3-.3,1.7-.9,2.5-3,6.7-4.8,10.1-6.5,3.9-2,8-3.8,12.1-5.3,7.7-2.7,12-.8,18.9,3.4,6.4,3.9,12.2,8.8,17.4,14.3,4,4.2,2.1,10.3,1.4,15.4-.9,6.7-1.8,13.4-2.7,20,0,.4-.1.8-.3,1.1-2.3,3.6-10.3,6.4-14.1,8-5.8,2.5-11.8,4.4-18,5.5-1.2.2-2.4.4-3.6.2-1.4-.2-2.7-1-4-1.7-4.4-2.7-8.7-5.7-12.8-8.9-3.1-2.4-8-5.4-9.9-8.9-.5-.9-.6-2-.7-3-.8-11,.6-22.2,4.2-32.7Zm-17.3-22.3v.2c0,0,0-.1,0-.2,0,0,0,0,0,0h0Zm6.1-10.2s0,0,0,0c0,0,0,0,0,0h0Zm14.3-16.4c0,0-.2.1-.3.2,0,0,.2-.1.3-.2h0Zm27.9,3.3c.1,0,.2,0,.4.1,0,0,0,0,0,0-.1,0-.2,0-.4-.1h0Zm-30,40.8s0,0,0,0h0s0,0,0,0h0Zm-16-14.3h0c.1.1.2.3.3.4-.1-.1-.2-.3-.3-.4,0,0,0,0,0,0,0,0,0,0,0,0h0Zm7.5,9.8h0s0,0,0,0c0,0,0,0,0,0h0Zm0,0s0,0,0,0h0s0,0,0,0h0Zm-16.3,56.9s0,0,0,0c0,0,0,0,0,0,0,0,0,0,0,0h0Zm-1.3,1h0s0,0,0,0c0,0,0,0,0,0h0Zm47.7,33.9c.8-8.6,1.7-17.3,2.5-25.9,1.9-.4,4.3-.9,7.1-1.6,2.2-.6,5-1.3,8.6-2.7,2.8-1.1,5.6-2.3,8.3-3.7,3.5-1.8,6.8-3.8,10-6,0,.1,0,.3,0,.4,0,0,0,.2,0,.2,0,0,.1,0,.2,0,.2,0,.3-.1.3-.3,0-.2,0-.3,0-.5,0,0,0,0,0,0,.3.1.7.2,1,.4,6.9,2.8,13.6,6.7,19.4,11.3,3.9,3,2.8,5,2,9.7-1.9,10.7-4.9,17.2-15.3,21.6-4.9,2.1-10,3.8-15.2,5.3-2.7.8-5.6,1.4-8.4,1.2-2.9-.2-5.3-1.3-9.9-3.5-1-.5-5.3-2.5-10.4-6-.1,0-.3-.2-.3-.2Zm23.2,10.7c0,0,.2,0,.2,0,0,0,0,0,0,0,0,0-.1,0-.2,0h0Zm39.7-37.3s0,0,0,0h0s0,0,0,0h0Zm7.7-56.6c0,0,0,.2,0,.3,0,0,0-.2,0-.3,0,0,0,0,0,0h0Zm12.1,27.2h0c0,0,0,0,0,0h0Zm-38.2-77.9c7.2,1.4,12.3,6.6,18.4,11.1,2,1.5,4,3,5.2,5.2,3.5,6.5,3.1,17.3,2.8,24.4,0,1.4.2,5-.6,6-.4.5-1,.6-1.2.7-2.3.7-13.6,4.6-29.2,10.2-.3-.2-.6-.4-.9-.6-3.1-3.5-7.2-7.5-12.5-11.4-5.3-4-10.4-6.8-14.6-8.8.5-3.3-.2-6.6-.5-9.9-.6-7.1.2-14.7,1.7-21.7.3-1.7,11.3-3.7,13-4,4.9-1,9.9-1.5,14.9-1.4,1.2,0,2.4.1,3.5.4Zm-.5-1.8s0,0,0,0c0,0,0,0,0,0,0,0,0,0,0,0h0Zm.2.3s0,0,0,0c0,0,0,0,0,0,0,0,0,0,0,0,0,0,0,0,0,0h0Zm51.3,65.3c0-1.3-.1-2.7-.3-4-.1-1.5-.3-2.9-.5-4.4-.3-2-.6-4-1.1-5.9-.5-2.5-1.2-5-2-7.5-.8-2.5-1.7-4.9-2.7-7.3-2-4.6-4.4-9.1-7.2-13.3-.7-1.1-1.5-2.2-2.3-3.2,0-.2,0-.4-.2-.5,0,0-.2-.1-.3-.2-2.1-2.8-4.4-5.4-6.8-7.9-3.5-3.6-7.4-6.9-11.5-9.8-8.2-5.8-17.5-10.1-27.3-12.5-5-1.2-10.1-2-15.2-2.3-1.5,0-3.1-.1-4.6-.1-3.6,0-7.2.2-10.8.7-2.5.3-5,.8-7.5,1.3-2.5.6-4.9,1.3-7.3,2.1-4.8,1.6-9.5,3.7-14,6.1-4.5,2.5-8.8,5.5-12.8,8.8-4,3.3-7.6,7-10.9,11-3.2,3.9-6.1,8.2-8.6,12.7-2.5,4.5-4.5,9.2-6.1,14-.8,2.5-1.5,5-2.1,7.5,0,.3-.1.6-.2.9,0,0,0,0-.1.1-.1.6-.3,1.3-.4,1.9,0,.1,0,.3-.1.4,0,0,.1-.2.2-.3-.3,1.5-.5,3-.7,4.5-.3,2.6-.5,5.1-.6,7.7,0,2.6,0,5.1.1,7.7.3,5.1,1.1,10.2,2.4,15.2,1.2,4.9,3,9.8,5.1,14.4,4.3,9.3,10.4,17.7,17.8,24.8,1.9,1.8,3.9,3.6,6,5.2,0,0,0,0,0,.1,0,0,0,.2-.1.3,0,.3,0,.6.4.6,0,0,.1,0,.2,0,.2,0,.4-.1.5-.4,0,0,0,0,0,0,1.6,1.2,3.3,2.4,5,3.5,2.2,1.4,4.4,2.7,6.7,3.9,2.3,1.2,4.6,2.3,7,3.3,9.4,3.9,19.6,5.9,29.8,6,5.2,0,10.4-.4,15.5-1.2,5.1-.9,10-2.3,14.8-4.1,4.7-1.8,9.3-4,13.6-6.7,4.3-2.6,8.4-5.7,12.1-9,7.5-6.7,13.6-14.7,18.2-23.6,2.3-4.5,4.2-9.2,5.6-14,1.5-5,2.4-10.1,3-15.2.3-2.6.4-5.1.4-7.7,0-1.2,0-2.5,0-3.7h0Z" style="fill:#cccccd; stroke-width:0px;"/><path d="m192.8,219.2s0,0,0,0m-84.7-118.9s0,0,0,0" style="fill:none; stroke:#17170f; stroke-linecap:round; stroke-linejoin:round; stroke-width:0px;"/></g><path d="m155.7,231.7c-11.2,0-22.1-2.2-32.4-6.6-4.9-2.1-9.7-4.7-14.1-7.8-4.4-3-8.5-6.5-12.3-10.3-3.8-3.8-7.2-8-10.1-12.4-3-4.5-5.6-9.3-7.7-14.3-4.3-10.4-6.5-21.4-6.5-32.7s2.2-22.4,6.5-32.7c2.1-5,4.7-9.8,7.7-14.3,3-4.5,6.4-8.6,10.1-12.4,3.8-3.8,7.9-7.3,12.3-10.3,4.4-3,9.2-5.6,14.1-7.8,10.3-4.4,21.1-6.6,32.4-6.6s22.1,2.2,32.4,6.6c4.9,2.1,9.7,4.7,14.1,7.8,4.4,3,8.5,6.5,12.3,10.3,3.8,3.8,7.2,8,10.1,12.4,3,4.5,5.6,9.3,7.7,14.3,4.3,10.4,6.5,21.4,6.5,32.7s-2.2,22.4-6.5,32.7c-2.1,5-4.7,9.8-7.7,14.3-3,4.5-6.4,8.6-10.1,12.4-3.8,3.8-7.9,7.3-12.3,10.3-4.4,3-9.2,5.6-14.1,7.8-10.3,4.4-21.1,6.6-32.4,6.6Zm0-163.4c-43.2,0-78.4,35.6-78.4,79.4s35.2,79.4,78.4,79.4,78.4-35.6,78.4-79.4-35.2-79.4-78.4-79.4Z" style="fill:#393b8e; stroke-width:0px;"/><path d="m197.1,172.9v-79.2h-82v80.8c.7,3.7,2.8,12.5,10.4,19.5,5.1,4.7,10.5,6.5,13.5,7.5,6.1,2,11,2.1,16,2.2,5.8,0,10.9.2,17.3-1.9,3.5-1.1,10.4-3.5,16.3-10.1,6.5-7.3,8.1-15.4,8.5-18.9Z" style="fill:#fff; stroke-width:0px;"/><path d="m158.4,204.1c-1.1,0-2.3,0-3.5,0-4.9,0-10-.2-16.1-2.2-3-1-8.5-2.8-13.6-7.6-3.3-3.1-5.9-6.8-7.8-11.1-1.2-2.7-2.1-5.6-2.6-8.6h0v-81.1h82.7v79.6c-.3,2.8-1,5.5-2,8.1-1.5,4.1-3.7,7.8-6.6,11-6.1,6.8-13.4,9.1-16.5,10.1-5.1,1.7-9.4,1.9-13.9,1.9Zm-43.1-29.6c1,5.4,3.5,13.1,10.3,19.3,5.1,4.7,10.5,6.5,13.4,7.5,6.1,2,10.9,2.1,15.9,2.2,5.8,0,10.9.2,17.2-1.9,3.1-1,10.2-3.3,16.2-10,5.8-6.5,7.8-13.7,8.4-18.7v-78.9h-81.4v80.4Z" style="stroke-width:0px;"/><rect x="114.7" y="108.8" width="82.7" height=".6" style="stroke-width:0px;"/><path d="m115.3,109.4h26.4v92.7c-3-.6-12.4-3.1-19.5-11.9-4.9-6.1-6.4-12.5-6.9-15.7v-65.1Z" style="fill:#009bdd; stroke-width:0px;"/><path d="m196.7,109.4h-26.4v92.7c3-.7,12.7-3.5,19.8-12.9,4.9-6.5,6.2-13,6.6-16.3v-63.5Z" style="fill:#009bdd; stroke-width:0px;"/><path d="m158.1,204c-2.2,0-3.7,0-3.8,0-7.5-.2-12.9-1.4-16.1-2.3-3.5-1.1-5.3-2.1-5.3-2.1l.2-.3s1.8,1,5.2,2.1c3.2,1,8.6,2.1,16.1,2.3h0c.1,0,12.7.8,19.6-2.4v.3c-3.5,1.7-8.7,2.3-12.4,2.4-1.3,0-2.4,0-3.5,0Z" style="stroke-width:0px;"/><path d="m142.1,105.1c0,.1,0,.2,0,.3,0,0,0,.1,0,.2,0,0,0,.1,0,.1,0,0,0,0-.1.1,0,0-.1.1-.3.2s-.3.2-.5.2c-.2,0-.4.1-.7.2-.3,0-.5,0-.8,0-.6,0-1.1,0-1.6-.3-.5-.2-.9-.5-1.2-.8-.3-.4-.6-.8-.8-1.4s-.3-1.2-.3-1.9,0-1.4.3-2c.2-.6.5-1,.8-1.4s.8-.7,1.3-.9c.5-.2,1-.3,1.6-.3s.5,0,.7,0,.4,0,.6.2c.2,0,.4.1.5.2.2,0,.3.2.3.2,0,0,.1.1.1.2,0,0,0,0,0,.2,0,0,0,.1,0,.2,0,0,0,.2,0,.3s0,.2,0,.3,0,.2,0,.2c0,0,0,.1,0,.1,0,0,0,0-.1,0,0,0-.2,0-.3-.1-.1,0-.2-.2-.4-.3-.2,0-.4-.2-.6-.3-.2,0-.5-.1-.8-.1s-.6,0-.9.2-.5.3-.7.6c-.2.3-.3.6-.4.9s-.1.8-.1,1.2,0,.9.2,1.3c.1.4.3.7.4.9.2.2.4.4.7.5s.6.2.9.2.6,0,.8-.1.4-.2.6-.2c.2,0,.3-.2.4-.2s.2-.1.2-.1,0,0,.1,0,0,0,0,.1,0,.1,0,.2c0,0,0,.2,0,.4Z" style="fill:#1f140f; stroke-width:0px;"/><path d="m145.3,105.5c0,.4,0,.7-.2.8-.1.1-.4.2-.8.2s-.6,0-.8-.2-.2-.4-.2-.8,0-.7.2-.8c.1-.1.4-.2.8-.2s.6,0,.8.2c.1.1.2.4.2.8Z" style="fill:#1f140f; stroke-width:0px;"/><path d="m154.2,105.8c0,.2,0,.3.1.4,0,0,0,.2,0,.2,0,0-.1,0-.3,0s-.3,0-.5,0-.4,0-.5,0c-.1,0-.2,0-.3,0,0,0-.1,0-.1,0s0,0,0-.1l-.6-1.7h-3.2l-.5,1.7c0,0,0,.1,0,.2,0,0,0,0-.1.1s-.2,0-.3,0-.3,0-.5,0-.4,0-.5,0-.2,0-.2,0c0,0,0-.1,0-.2,0,0,0-.2.1-.4l2.7-7.7c0,0,0-.1,0-.2s0,0,.2-.1c0,0,.2,0,.3,0,.1,0,.3,0,.5,0s.5,0,.6,0c.2,0,.3,0,.4,0,0,0,.1,0,.2.1,0,0,0,.1,0,.2l2.7,7.7Zm-4-6.3h0l-1.2,3.7h2.5l-1.2-3.7Z" style="fill:#1f140f; stroke-width:0px;"/><path d="m157.4,105.5c0,.4,0,.7-.2.8-.1.1-.4.2-.8.2s-.6,0-.8-.2-.2-.4-.2-.8,0-.7.2-.8c.1-.1.4-.2.8-.2s.6,0,.8.2c.1.1.2.4.2.8Z" style="fill:#1f140f; stroke-width:0px;"/><path d="m164,98.5c0,.1,0,.2,0,.3,0,0,0,.2,0,.2,0,0,0,0,0,.1,0,0,0,0-.1,0h-2.8v2.3h2.7s0,0,.1,0c0,0,0,0,0,.1,0,0,0,.1,0,.2,0,0,0,.2,0,.3s0,.2,0,.3,0,.2,0,.2c0,0,0,0,0,.1,0,0,0,0-.1,0h-2.7v3.2s0,0,0,.1c0,0,0,0-.1,0,0,0-.2,0-.3,0-.1,0-.3,0-.4,0s-.3,0-.4,0-.2,0-.3,0-.1,0-.1,0c0,0,0,0,0-.1v-7.8c0-.2,0-.3.2-.4.1,0,.2-.1.4-.1h4.1s0,0,.1,0c0,0,0,0,0,.1,0,0,0,.1,0,.2,0,0,0,.2,0,.3Z" style="fill:#1f140f; stroke-width:0px;"/><path d="m166.2,105.5c0,.4,0,.7-.2.8-.1.1-.4.2-.8.2s-.6,0-.8-.2-.2-.4-.2-.8,0-.7.2-.8c.1-.1.4-.2.8-.2s.6,0,.8.2c.1.1.2.4.2.8Z" style="fill:#1f140f; stroke-width:0px;"/><path d="m173.1,103.9c0,.5,0,.9-.3,1.2-.2.3-.4.6-.7.9s-.6.4-1,.5-.8.2-1.2.2-.6,0-.8,0-.5-.1-.7-.2c-.2,0-.4-.1-.5-.2-.1,0-.2-.1-.3-.2,0,0,0-.1-.1-.3,0-.1,0-.3,0-.5s0-.3,0-.3,0-.2,0-.2c0,0,0,0,0-.1,0,0,0,0,.1,0s.2,0,.3.1.3.2.4.2c.2,0,.4.2.6.2.2,0,.5.1.9.1s.4,0,.6,0c.2,0,.3-.1.4-.2.1,0,.2-.2.3-.3,0-.1,0-.3,0-.5s0-.4-.2-.5-.2-.3-.4-.4c-.2-.1-.4-.2-.6-.3s-.4-.2-.7-.3c-.2-.1-.5-.2-.7-.4s-.4-.3-.6-.5c-.2-.2-.3-.4-.4-.7-.1-.3-.2-.6-.2-.9s0-.8.2-1.1c.2-.3.4-.6.6-.8.3-.2.6-.4.9-.5.4-.1.7-.2,1.1-.2s.4,0,.6,0,.4,0,.6.1c.2,0,.3.1.5.2.1,0,.2.1.3.2,0,0,0,0,0,.1,0,0,0,0,0,.1,0,0,0,.1,0,.2,0,0,0,.2,0,.3s0,.2,0,.3c0,0,0,.2,0,.2,0,0,0,.1,0,.1s0,0-.1,0-.1,0-.2,0c-.1,0-.2-.1-.4-.2-.2,0-.3-.1-.5-.2-.2,0-.4,0-.7,0s-.4,0-.5,0c-.1,0-.3.1-.4.2s-.2.2-.2.3c0,.1,0,.2,0,.4,0,.2,0,.4.2.5s.2.3.4.4c.2.1.4.2.6.3s.4.2.7.3.5.2.7.4c.2.1.4.3.6.5s.3.4.4.7.2.6.2.9Z" style="fill:#1f140f; stroke-width:0px;"/><path d="m176.4,105.5c0,.4,0,.7-.2.8-.1.1-.4.2-.8.2s-.6,0-.8-.2-.2-.4-.2-.8,0-.7.2-.8c.1-.1.4-.2.8-.2s.6,0,.8.2c.1.1.2.4.2.8Z" style="fill:#1f140f; stroke-width:0px;"/><polygon points="156.4 115.1 159.7 121.8 167.1 122.8 161.7 128.1 163 135.4 156.4 131.9 149.8 135.4 151 128.1 145.7 122.8 153.1 121.8 156.4 115.1" style="fill:#f5b315; stroke-width:0px;"/><polygon points="156.4 162.4 159.7 169.1 167.1 170.1 161.7 175.3 163 182.7 156.4 179.2 149.8 182.7 151 175.3 145.7 170.1 153.1 169.1 156.4 162.4" style="fill:#f5b315; stroke-width:0px;"/></g></svg>