<?xml version="1.0" encoding="UTF-8"?><svg id="a" xmlns="http://www.w3.org/2000/svg" viewBox="0 0 868.77 734.47"><defs><style>.b{fill:#fff;stroke-width:0px;}.c{opacity:.25;}</style></defs><g class="c"><polygon class="b" points="279.46 364.03 279.51 364.1 279.48 364.02 279.46 364.03"/><polygon class="b" points="181.16 469.63 181.25 469.75 181.39 469.78 181.3 469.66 181.16 469.63"/><path class="b" d="m424.56,35.15c1.38.05,2.19-.61,2.17-1.98-.03-1.44-.89-2.1-2.34-2.1-1.29,0-1.95.46-1.88,1.85.07,1.37.43,2.38,2.06,2.23Z"/><path class="b" d="m459.37,71.95c1.49-.04,3.08-.14,3.16-2.65-.34-1.42-.85-3.39-2.97-3.42-1.7-.03-3,1.32-3.07,3.2-.07,1.88,1.02,2.91,2.89,2.87Z"/><path class="b" d="m417.81,34.84c1.39.2.89-1.2,1.03-1.67.23-1.83-.03-3.03-1.94-3.02-1.04,0-2.06.16-2.01,1.51.07,1.84,1.26,2.95,2.92,3.18Z"/><path class="b" d="m411.94,74.56c-1.89.11-2.79,1.5-2.94,3.19-.18,2.07,1.32,2.86,3.15,2.91,2.14.05,2.74-1.42,2.85-3.22.13-2.08-1.22-2.65-3.07-2.88Z"/><path class="b" d="m383.79,69.36c-.06-1.97-1.28-2.62-2.96-2.52-1.63.09-3.32.51-3.11,2.61.16,1.56.55,3.42,2.78,3.32,2.1-.09,3.2-1.32,3.29-3.41Z"/><path class="b" d="m384.01,75.94c-2.09,0-2.92,1.39-2.82,3.24.1,1.79.96,3.2,3.03,3.16,1.95-.04,3.67-.49,3.08-3.18.47-2.59-1.18-3.22-3.29-3.22Z"/><path class="b" d="m444.35,35.3c1.16.04,1.86-.43,1.77-1.89.06-1.43-.85-2.12-2.32-2.21-1.21-.08-1.83.64-1.84,1.75,0,1.53.89,2.3,2.39,2.35Z"/><path class="b" d="m453.78,77.76c-.01,1.84.97,2.91,3.28,2.87,1.27-.15,2.73-.75,2.62-2.59-.11-1.81-1.12-3.37-3.16-3.42-1.94-.04-2.72,1.41-2.73,3.14Z"/><path class="b" d="m451.59,34.75c1.89.1,1.96-1.49,2.14-2.79.2-1.39-.44-2.11-1.89-2.05-1.29.05-2.41.29-2.4,2.09.17,1.23.41,2.66,2.14,2.76Z"/><path class="b" d="m418.78,79.31c.94,2.85,2.97,3.28,7.2,2.45,1.1-.22,1.44-.64,1.63-.85,1-1.11.62-2.83.54-3.16.21-7.78.23-15.84.02-24.17-.08-3.25-.2-6.46-.35-9.62.08-.49.2-1.74-.56-2.66-.13-.15-.38-.71-1.97-1.06-1.09-.24-2.14-.65-3.24-.87-2.95-.6-5.11.58-6.42,3.21-1.41,2.83-2.01,5.85-2.26,9.04-.38,4.8.92,9.34,1.72,13.93.81,4.66,2.21,9.26,3.69,13.77Z"/><path class="b" d="m459.12,37.05c1.41,0,2.34-.48,2.19-2.09.12-1.85-.69-2.78-2.59-2.82-1.47-.03-2.06.68-1.98,2.04.09,1.51.43,2.86,2.38,2.87Z"/><path class="b" d="m484.14,76.03c-2.11.06-2.65,1.63-2.7,3.42-.05,1.92,1.02,3.01,2.83,3.01,1.79,0,3.26-.71,3.05-2.52-.06-2.53-.93-3.97-3.18-3.91Z"/><path class="b" d="m460.12,42.3c.02,1.92,1.56,1.91,2.9,1.93,1.43.02,2.51-.51,2.39-2.21-.12-1.6-1.1-2.34-2.61-2.49-1.59.27-2.69,1.08-2.67,2.77Z"/><path class="b" d="m460.3,50.41c-.04,2.95,2.58,2.8,4.34,3.06,1.97.3,1.52-1.69,1.78-2.62.14-2.2-.33-3.73-2.67-3.69-2.1.03-3.42,1.11-3.44,3.25Z"/><path class="b" d="m463.24,83.84c2.82.22,5.64.53,8.45.81,2.33.23,3.95-.73,4.61-2.97.77-2.6,1.99-4.97,3.16-7.38,2.39-4.92,4.4-9.97,4.35-14.36.29-8.42-2.36-11.92-9.18-13.7-1.8-.47-2.42-.3-2.56,1.83-.34,4.91-1.31,9.77-2.68,14.48-1.87,6.45-4.97,12.43-7.61,18.58-.69,1.6-.53,2.56,1.45,2.71Z"/><path class="b" d="m486.1,50.99c.15,1.22.6,2.77,2.6,2.81,1.7.04,2.91-.95,2.89-2.72-.02-1.79-1.29-2.68-2.96-2.65-1.25.02-2.61.31-2.52,2.55Z"/><path class="b" d="m461.87,56.99c-1.89-.02-3.11,1.01-3.06,2.77.05,1.81,1.13,3.3,3.2,3.33,2.42.04,2.47-1.87,2.65-3.57.23-2.15-1.11-2.51-2.78-2.53Z"/><path class="b" d="m486.47,60.12c.34,1.72,1.23,3.25,3.2,3.27,2.14.02,2.82-1.91,2.92-3.56.14-2.38-1.95-2.43-3.62-2.58-1.94-.18-2.24,1.27-2.49,2.87Z"/><path class="b" d="m476.78,43.32c1.48,0,2.39-.56,2.43-2.18.03-1.44-.56-2.24-2.07-2.23-1.38-.02-2.28.5-2.27,2.05,0,1.3.26,2.37,1.91,2.36Z"/><path class="b" d="m487.68,66.98c-1.23.24-3.12.05-3.09,2.33.03,2.14,1.28,3.22,3.43,3.25,2.2.04,2.79-1.49,2.91-3.21.15-2.07-1.36-2.37-3.25-2.37Z"/><path class="b" d="m484.62,46.22c1.63-.06,2.7-.87,2.78-2.78.08-1.88-.93-2.6-2.49-2.67-1.85-.08-2.04,1.32-2.08,2.77.05,1.25-.03,2.74,1.79,2.67Z"/><path class="b" d="m440.81,61.28c0,4.85-.04,9.69,0,14.54.07,7.18-.58,5.95,6.35,5.93.37,0,.74-.06,1.11-.1.68-.08,1.07-.48,1.21-1.13,1.46-6.6,3.93-12.92,4.83-19.71.69-5.15,1.31-10.17,0-15.26-1.39-5.42-4.92-7.35-10.24-5.75-2.12.63-2.97,1.8-2.93,4.05.12,5.81.04,11.63.04,17.45-.13,0-.25,0-.38,0Z"/><path class="b" d="m416.04,103.05c-.82.07-1.44.56-1.42,1.4.03.91.65,1.49,1.6,1.45.92-.04,1.17-.74,1.23-1.56-.06-.87-.52-1.36-1.41-1.29Z"/><path class="b" d="m425.89,101.41c-2.57,0-6.03,1.99-5.68,3.22.66,2.34,2.96,2.75,4.89,3.25,1.48.38,5.17-2.26,4.99-3.31-.43-2.54-2.7-2.59-4.2-3.16Z"/><path class="b" d="m434.05,103.38c-.75,0-1.33.18-1.28.96.06.9.6,1.56,1.52,1.58.82.02,1.46-.54,1.45-1.36-.01-1.11-1.02-1.04-1.7-1.19Z"/><path class="b" d="m406.63,101.49c-2.12.16-4.23.65-4.89,3.09-.28,1.03,3.38,3.44,5.37,3.42,1.28-.97,3.72-.99,4.23-3.34.33-1.53-2.39-3.34-4.7-3.17Z"/><path class="b" d="m453.23,103.07c-.92.17-2.12.17-2.24,1.52-.07.82.58,1.31,1.45,1.33,1.41.04,1.95-1.03,2.18-2.08.17-.77-.73-.71-1.39-.77Z"/><path class="b" d="m408.97,65.8c-1.64.03-2.69,1.6-2.7,3.28-.01,1.79,1.09,2.84,3.11,2.89,1.77-.2,3.04-1.34,2.92-3.15-.12-1.76-1.7-3.04-3.32-3.02Z"/><path class="b" d="m434.4,10.44C200.24,10.44,9.74,202.5,9.74,438.57c0,89.17,27.04,174.72,78.19,247.41.08.11,3.52,5.21,16.49,19.39l99.38-73.86,118.55,93.64,164.44-143.96,268.87,134.54c16.66-16.07,30.63-37.43,30.78-37.65,47.5-70.84,72.6-153.64,72.6-239.5,0-236.08-190.49-428.14-424.63-428.14Zm387.54,332.25c4.56-2.34,5.85-2.06,6.85,3.29,1.39,7.5,1.67,15.1,1.41,22.72,0,3.2,0,6.4,0,9.6.02,8.14-2.13,15.75-5.73,22.83-2.42,4.76-5.95,8.69-10.67,11.17-3.69,1.94-6.08,1.12-8.41-2.35-6.66-9.91-6.66-20.9-3.87-31.83,2.21-8.64,5.86-16.89,10.62-24.43,2.65-4.2,5.08-8.58,9.79-11Zm-36.65-64.37c2.25-8,4.97-15.73,11.35-21.38,2.05-1.82,3.65-1.81,5.23.24,1.82,2.35,3.31,4.96,4.15,7.89,2.49,8.75,4.12,17.63,3.44,26.83,0,2.77.13,5.54-.02,8.3-.45,8.14-1.56,16.13-5.49,23.38-2.28,4.21-5.53,6.47-10.3,6.02-4.31-.41-9.55-6.44-10.59-11.87-2.56-13.37-1.41-26.47,2.23-39.41Zm-42.59-92.58c.87-2.67,2.12-5.64,4.23-5.89,2.57-.3,4.46,2.21,6.09,4.3,6.69,8.56,11.1,18.41,14.09,28.92,3.65,12.8,5.4,25.56-2.75,37.54-1.49,2.19-2.94,2.95-5.36,2.28-9.1-2.53-15.54-17.14-15.54-17.14,0,0-9.91-21.96-.76-50.01Zm-65.05-66.05c.15-3.06,1.77-3.75,4.32-2.1,2.1,1.35,4.22,2.67,6.23,4.17,8.66,6.46,16.24,14.03,21.32,23.97,3.79,7.43,7.84,14.82,7.6,24.56.36,2.57-.33,5.86-.97,9.18-.36,1.85-1.06,3.16-2.13,3.91-1.51,1.06-3.33.73-4.05.6-5.78-1.04-21-12.21-26.97-27.95-1.67-4.39-2.9-9.45-2.9-9.45-2.12-8.86-2.91-17.8-2.45-26.88ZM387.46,35.16c2.28-.33,4.56-.78,6.86-.9,3.59-.19,6.39-1.54,9.07-4.07,4.26-4.03,9.69-5.04,15.41-4.05,2.77.48,5.62.66,8.27,1.82,1.77.78,2.93.05,3.22-1.83.16-1.09.59-1.98,1.29-2.79,1.19-1.4,1.61-2.82.17-4.37-1.02-1.1-.72-2.07.36-3.06,1.49-1.37,2.81-1.31,4.3-.02,1.07.93,1.49,1.79.44,3.01-1.12,1.3-1.28,2.54.08,3.92.76.77,1.3,1.91,1.25,3.05-.12,2.83,1.36,2.89,3.41,2.14,4.66-1.71,9.34-2.84,14.42-2.06,3.94.6,7.32,1.99,10,4.92,1.69,1.85,3.54,2.85,6.19,2.98,7.73.37,15.1,2.23,21.08,7.45,3.66,3.2,5.4,7.69,5.92,12.47.66,6.06-.48,11.84-3.06,17.42-2.1,4.55-4.24,9.03-7.2,13.1-.99,1.36-1.63,2.76.02,4.35,1.32,1.28.52,2.96-.01,4.42-.52,1.42-1.7,1.7-3.08,1.7-17.23-.02-34.46,0-51.7,0v-.04c-14.47,0-28.95,0-43.42,0-2.76,0-5.52-.11-8.27-.18-1.13-.03-2.47.03-2.8-1.3-.38-1.51-1.38-3.26.08-4.64,1.44-1.37,1.08-2.51.17-3.93-4.84-7.59-9.19-15.44-10.29-24.54-1.41-11.6,4.7-23.04,17.84-24.95Zm357.55,451.6c.88-.65,2.17-.09,2.72.13,5.63,2.23,9.65,6.31,13.36,11.27,10.34,13.81,16.09,29.14,14.63,46.81-.89,10.77-7.33,13.86-15.57,8.84-4.87-2.97-8.66-7.9-11.07-13.62-2.08-4.94-3.95-10.5-5.01-20.18-.81-7.39-1.33-17.87.13-30.58-.03-.41-.11-2,.81-2.68Zm15.69-27.22c-4.04-6.47-6.23-13.89-9.34-20.84-2.01-4.5-2.99-9.32-4.33-14.02-1.23-4.28,1.43-8.42,4.68-7.73,4.27.89,8.34,2.41,12.12,4.8,6.93,4.37,12.97,9.96,17.93,16.48,6.02,7.92,11.87,16.28,11.57,28.46.05,1.72.23,4.58-.67,7.36-.38,1.17-.78,2.5-2.03,2.74-4.56.9-9.37,1.59-13.54-.74-6.85-3.84-12.16-9.7-16.4-16.5Zm20.6-65.39c-.82.03-1.64,0-2.11,0-3.83.25-7.38-.01-10.6-1.1-7.64-2.59-14.19-7.37-19.52-13.58-7.36-8.57-13.12-18.34-17.33-29.06-1.74-4.41-.63-6.06,3.84-5.65,12.84,1.18,24.33,6.19,34.86,13.81,8.9,6.43,15.35,14.69,17.63,26.11,1.45,7.26.1,9.23-6.77,9.47Zm-14.47-73.03c-9.45,1.97-18.76.61-26.8-4.11-12.88-7.57-21.49-20.11-29.8-32.62-2-3.02.07-6.62,3.53-6.74,1.4-.05,2.8,0,4.61,0,2.72-.2,5.76.42,8.85.97,11.56,2.06,22.18,6.11,31.13,14.39,4.85,4.49,10.39,8.21,12.82,15.03,1.56,4.4.43,12.09-4.33,13.09Zm-32.61-80.85c-1.41,7.8-15.94,10.2-16.97,10.36-8.61,1.33-17.02-1.33-32.38-9.84-6.91-3.83-13.24-8.69-18.11-15.35-1.58-2.16-1.42-3.68.95-4.95,2.73-1.46,5.55-2.55,8.55-3.24,7.51-1.7,15.04-1.23,22.58-.46,11.3,1.16,21.88,4.9,30.43,12.72,2.47,2.26,5.72,6.48,4.95,10.74Zm-46.91-39.83c-6.04,3.52-12.46,4.75-19.73,4.45-6.47.37-13.21-1.04-20.01-2.34-8.27-1.57-15.69-5.02-22.53-9.98-3.06-2.22-2.86-5.02.35-6.89,4.64-2.71,9.26-5.3,14.52-6.78,9.45-2.67,18.96-4.24,28.7-3.37,6.49.58,12.83,2.21,18.64,5.5,3.73,2.11,6.62,5.35,6.69,9.92.07,4.56-2.92,7.32-6.63,9.48Zm45.84,238.14c0,.72,0,1.45-.03,2.18-61.32-110.63-174.92-178.95-298.79-178.95s-237.38,68.28-298.69,178.88c-.01-.71-.02-1.41-.02-2.12,0-166.09,134.01-301.21,298.72-301.21s298.8,135.12,298.8,301.21Zm-629.29,59.59c3.72-4.96,7.73-9.04,13.36-11.27.55-.22,1.85-.78,2.72-.13.92.68.84,2.26.81,2.68,1.46,12.71.94,23.19.13,30.58-1.06,9.68-2.93,15.24-5.01,20.18-2.41,5.72-6.2,10.65-11.07,13.62-8.25,5.03-14.69,1.93-15.57-8.84-1.46-17.67,4.29-33,14.63-46.81Zm-16.01-22.12c-4.17,2.34-8.97,1.64-13.54.74-1.25-.25-1.65-1.57-2.03-2.74-.89-2.78-.71-5.64-.67-7.36-.3-12.18,5.54-20.54,11.57-28.46,4.96-6.52,11-12.11,17.93-16.48,3.78-2.39,7.85-3.9,12.12-4.8,3.25-.68,5.91,3.45,4.68,7.73-1.34,4.7-2.32,9.52-4.33,14.02-3.1,6.95-5.3,14.37-9.34,20.84-4.25,6.81-9.56,12.67-16.4,16.5Zm28.03-96.57c-5.33,6.21-11.88,10.98-19.52,13.58-3.22,1.09-6.76,1.36-10.6,1.1-.46,0-1.29.03-2.11,0-6.87-.24-8.22-2.21-6.77-9.47,2.27-11.42,8.73-19.68,17.63-26.11,10.54-7.61,22.02-12.63,34.86-13.81,4.46-.41,5.57,1.24,3.84,5.65-4.22,10.72-9.97,20.49-17.33,29.06Zm9.04-62.46c-8.04,4.73-17.35,6.08-26.8,4.11-4.77-1-5.9-8.69-4.33-13.09,2.43-6.82,7.97-10.55,12.82-15.03,8.95-8.28,19.57-12.34,31.13-14.39,3.09-.55,6.12-1.17,8.85-.97,1.81,0,3.21-.04,4.61,0,3.46.12,5.53,3.73,3.53,6.74-8.31,12.51-16.92,25.05-29.8,32.62Zm63.76-99.75c3.01.68,5.83,1.77,8.55,3.24,2.37,1.27,2.53,2.79.95,4.95-4.87,6.66-11.2,11.51-18.11,15.35-15.35,8.51-23.77,11.17-32.38,9.84-1.03-.16-15.56-2.56-16.97-10.36-.77-4.27,2.48-8.49,4.95-10.74,8.55-7.82,19.13-11.56,30.43-12.72,7.53-.77,15.07-1.25,22.58.46Zm-17.68-26.31c.07-4.57,2.95-7.81,6.69-9.92,5.8-3.28,12.15-4.92,18.64-5.5,9.74-.87,19.25.7,28.7,3.37,5.26,1.48,9.88,4.08,14.52,6.78,3.21,1.87,3.41,4.67.35,6.89-6.84,4.95-14.26,8.4-22.53,9.98-6.8,1.29-13.54,2.71-20.01,2.34-7.27.29-13.69-.94-19.73-4.45-3.72-2.16-6.7-4.93-6.63-9.48Zm304.82-85.47c.78,1.37,4.97,2.6,6.4,1.9.4-.2.78-.51,1.2-.59.96-.19,1.89-1.46,2.83-.51.78.78.4,2,.11,3-.35,1.25-1.39,1.37-2.51,1.37-12.68-.03-25.35-.05-38.03-.07-3.8,0-7.61,0-11.41,0v.04c-16.25,0-32.51,0-48.76,0-1.09,0-2.34.26-3.12-.79-.8-1.08-1.13-2.37-.33-3.55,1-1.48,1.9-.05,2.6.41,2.63,1.73,5.03,1.87,7.45-.38,1.2-1.12,1.29-2.06.1-3.19-2.75-2.61-4.59-2.77-7.74-.59-1.02.7-2.05,1.46-3.24.58-1.06-.79-.77-2.04-.55-3.12.3-1.5,1.49-1.64,2.77-1.64,11.55.05,23.09.12,34.64.12,20.65-.01,41.3-.05,61.95-.17,1.85-.01,3.7-.09,5.55.06,1.11.09,1.82.65,2.05,1.73.27,1.26-.06,2.4-1,3.28-.91.86-1.65.03-2.39-.39-4.36-2.47-4.92-2.43-8.05.38-.71.63-1.01,1.29-.52,2.15Zm-327.99,64.8c-.24-9.73,3.8-17.13,7.6-24.56,5.08-9.94,12.67-17.52,21.32-23.97,2.01-1.5,4.13-2.81,6.23-4.17,2.55-1.64,4.16-.96,4.32,2.1.46,9.08-.33,18.02-2.45,26.88,0,0-1.24,5.05-2.9,9.45-5.97,15.75-21.19,26.91-26.97,27.95-.72.13-2.54.45-4.05-.6-1.07-.75-1.77-2.06-2.13-3.91-.64-3.31-1.33-6.61-.97-9.18Zm-49.99,42.78c2.99-10.51,7.4-20.36,14.09-28.92,1.63-2.09,3.53-4.6,6.09-4.3,2.11.25,3.36,3.22,4.23,5.89,9.16,28.04-.76,50.01-.76,50.01,0,0-6.44,14.61-15.54,17.14-2.42.67-3.87-.09-5.36-2.28-8.15-11.98-6.4-24.74-2.75-37.54Zm-38.92,52.01c.83-2.93,2.33-5.54,4.15-7.89,1.58-2.05,3.18-2.06,5.23-.24,6.38,5.65,9.11,13.38,11.35,21.38,3.64,12.94,4.79,26.05,2.23,39.41-1.04,5.43-6.29,11.47-10.59,11.87-4.77.45-8.02-1.81-10.3-6.02-3.92-7.25-5.04-15.24-5.49-23.38-.15-2.76-.02-5.53-.02-8.3-.68-9.2.95-18.08,3.44-26.83Zm-22.76,80.92c1-5.35,2.29-5.64,6.85-3.29,4.71,2.42,7.14,6.8,9.79,11,4.75,7.53,8.41,15.78,10.62,24.43,2.79,10.93,2.79,21.92-3.87,31.83-2.33,3.46-4.72,4.29-8.41,2.35-4.72-2.48-8.25-6.41-10.67-11.17-3.59-7.07-5.75-14.68-5.73-22.83,0-3.2,0-6.4,0-9.6-.25-7.62.02-15.22,1.41-22.72Zm-12.65,90.65c.06-1.54.21-3.11.53-4.61.96-4.51,2.45-5.12,6.38-2.74,4.52,2.74,8.55,6.24,12.14,10.13,7.36,7.97,13.8,16.67,17.37,27.37,1.48,4.44,2.76,8.88,2.41,14,.6,4.78-1.25,9.35-2.94,13.95-.41,1.11-1.17,1.65-2.27,1.62-7.07-.2-13.24-2.35-17.45-8.83-.97-1.5-2.08-2.9-3.09-4.37-6.05-8.8-8.75-19-11.16-29.33-1.32-5.66-2.13-11.36-1.92-17.19Zm30.25,130.03c-3.11-3.32-6.23-6.72-8.44-10.78-5.22-9.57-10.3-19.22-11.01-30.63-.18-2.9.73-3.75,3.34-3.31,7.62,1.3,14.26,4.97,20.76,9.09,9.59,6.07,16.98,14.4,22.61,24.43,2.33,4.15,3.8,8.8,3.73,14.08.96,5.99-5.29,11-11.13,10.11-8.55-1.31-14.25-7-19.86-12.98Zm69.53,88.92c-.12,1.66-1.21,2.11-2.4,2.54-5.59,2.05-11.2,1.33-16.4-.96-11.43-5.03-20.27-13.45-27.49-24.04-3.96-5.81-7.48-11.78-10.05-18.35-1.62-4.14-.72-5.43,3.53-5.65.57-.03,1.15,0,1.73,0,9.06.65,17.4,3.69,25.51,7.93,6.37,3.33,11.91,7.53,16.67,13.07,6.23,7.27,9.6,15.54,8.9,25.46Zm7.95-3.7c-16.98-24.42-42.56-67.64-56.48-127.76-13.76-59.44-10.17-109.64-5.88-139.43,3.49-22.78,9.71-50.2,20.92-79.95,13.47-35.74,29.03-61.28,36.87-73.36,20.22-31.17,39.49-50.66,45.5-56.46,10.28-9.93,19.68-17.52,26.93-22.96-1.43-2.17-1.79-5.09-.72-8.2,2.93-8.55,8.24-14.81,15.4-19.9,13.04-9.28,27.58-12.45,42.91-13.21,2.7-.13,3.46.78,2.95,3.6-.78,4.33-3.18,7.88-5.35,11.28-2.74,4.3-6.07,8.33-10.01,11.72-2.25,1.94-4.23,4.26-6.56,6.18-5.88,4.83-12.36,8.51-19.29,11.27-2.83,1.13-5.97,1.1-9.03,1.04-1.48-.07-2.97-.05-4.43-.25-2.57-.34-4.51-1.6-5.74-3.37-8.29,7.27-42.34,38.19-72.02,84.48-10.25,15.99-24.56,41.12-36.35,74.18-15.11,42.38-18.69,77.07-20.79,98.77-1.88,19.41-3.84,40.9-.65,69.1,2.23,19.72,6.12,35.23,9.41,48.36,7.2,28.67,15.18,48.94,17.26,54.13,5.42,13.53,11.65,28.87,23.34,47.1,4.8,7.49,9.24,13.47,12.54,17.68-.24,1.99-.47,3.98-.71,5.97Zm4.26-29.11c-2.79,4.2-6.71,5.43-11.26,4.57-3.8-.71-5.76-3.68-6.98-7.26-2.32-6.78-2.07-13.81-1.34-20.78,1.64-15.54,6.3-29.89,16.21-41.86,4.88-5.9,6.67-5.43,9.38,1.95,2.44,6.62,2.53,13.7,3.33,20.63.28,2.39.04,4.84.04,8.25.93,12.03-2.28,23.83-9.38,34.5Zm345.68-121.74l-166.17,145.47-58.62-46.63c14.25-67.79,37.16-123.33,62.28-167.19-50.97,12.07-106.07,32.34-164.85,63.61,15.05-37.51,37.28-71.93,66-101.51,55.41-57.04,128.52-89.32,206.55-91.38-21.77,17.28-67.28,58.57-107.7,129.28,101.13-24.02,186.16-15.67,251.88,3.1v-.04c-26.15-50.7-63.19-96.73-115.08-131.68,122.91,8.75,225.88,93.22,265.19,208.26-16.08-13.51-68.09-53.14-150.1-76.54,22.28,43.2,36.59,89.75,45.6,135.75l-134.98-70.5Zm248.23,121.74c-7.1-10.67-10.32-22.47-9.38-34.5,0-3.41-.23-5.86.04-8.25.8-6.93.89-14.01,3.33-20.63,2.72-7.37,4.5-7.85,9.38-1.95,9.91,11.97,14.57,26.33,16.21,41.86.73,6.97.99,13.99-1.34,20.78-1.23,3.58-3.18,6.54-6.98,7.26-4.55.85-8.47-.37-11.26-4.57Zm3.55,23.14c3.3-4.21,7.74-10.19,12.54-17.68,11.69-18.23,17.92-33.57,23.34-47.1,2.08-5.19,10.06-25.46,17.26-54.13,3.29-13.13,7.19-28.64,9.41-48.36,3.18-28.2,1.22-49.69-.65-69.1-2.1-21.7-5.68-56.39-20.79-98.77-11.78-33.06-26.09-58.19-36.35-74.18-29.68-46.29-63.73-77.2-72.02-84.48-1.23,1.77-3.17,3.03-5.74,3.37-1.46.2-2.96.17-4.43.25-3.06.05-6.21.09-9.03-1.04-6.92-2.76-13.41-6.44-19.29-11.27-2.33-1.92-4.31-4.24-6.56-6.18-3.94-3.39-7.27-7.42-10.01-11.72-2.17-3.4-4.57-6.95-5.35-11.28-.51-2.82.25-3.73,2.95-3.6,15.32.76,29.87,3.93,42.91,13.21,7.16,5.09,12.47,11.35,15.4,19.9,1.07,3.11.7,6.03-.72,8.2,7.25,5.44,16.65,13.02,26.93,22.96,6,5.8,25.27,25.29,45.5,56.46,7.83,12.07,23.4,37.61,36.87,73.36,11.21,29.76,17.42,57.17,20.92,79.95,4.28,29.79,7.88,79.99-5.88,139.43-13.92,60.12-39.5,103.33-56.48,127.76-.24-1.99-.47-3.98-.71-5.97Zm65-31.14c-2.57,6.58-6.09,12.55-10.05,18.35-7.23,10.59-16.06,19.01-27.49,24.04-5.19,2.28-10.81,3.01-16.4.96-1.19-.44-2.28-.89-2.4-2.54-.7-9.92,2.67-18.19,8.9-25.46,4.75-5.54,10.3-9.74,16.67-13.07,8.11-4.24,16.45-7.28,25.51-7.93.58,0,1.15-.02,1.73,0,4.25.21,5.15,1.5,3.53,5.65Zm21.63-58.9c-2.21,4.06-5.33,7.46-8.44,10.78-5.61,5.98-11.31,11.67-19.86,12.98-5.83.89-12.09-4.12-11.13-10.11-.07-5.27,1.4-9.93,3.73-14.08,5.63-10.02,13.02-18.36,22.61-24.43,6.51-4.12,13.15-7.8,20.76-9.09,2.61-.44,3.52.41,3.34,3.31-.71,11.42-5.79,21.06-11.01,30.63Zm8.73-72.72c-1.01,1.47-2.12,2.87-3.1,4.37-4.21,6.48-10.38,8.63-17.45,8.83-1.1.03-1.86-.51-2.27-1.62-1.69-4.6-3.54-9.17-2.94-13.95-.35-5.12.92-9.55,2.41-14,3.57-10.7,10.01-19.4,17.37-27.37,3.59-3.89,7.61-7.39,12.14-10.13,3.93-2.38,5.41-1.77,6.38,2.74.32,1.5.48,3.07.53,4.61.22,5.83-.6,11.54-1.92,17.19-2.41,10.34-5.11,20.54-11.16,29.33Z"/><path class="b" d="m396.97,103.06c-.64.24-1.93.08-1.88,1.22.05,1.13,1.13,1.62,2.27,1.65,1.05.03,1.77-.36,1.7-1.51-.07-1.21-1.02-1.27-2.1-1.36Z"/><path class="b" d="m443.29,101.12c-1.9.16-3.14,1.46-4.49,2.43-.72.52-.5,1.57.24,2.15,1.05.82,2.15,1.6,3.32,2.24,1.26.7,6.37-1.75,6.61-3.13.07-.37-.08-.98-.36-1.18-1.61-1.21-3.32-2.25-5.33-2.51Z"/><path class="b" d="m462.08,100.98c-1.75.04-5.5,2.54-5.41,3.61.1,1.28,3.82,3.56,5.79,3.55,1.17,0,4.48-2.73,4.46-3.67-.02-1.1-3.38-3.52-4.83-3.49Z"/><path class="b" d="m391.24,43.3c1.51,0,2.56-.4,2.54-1.83-.01-1.34-.84-2.28-2.2-2.31-1.49-.03-2.32.93-2.35,2.4-.03,1.51,1.04,1.78,2.01,1.74Z"/><path class="b" d="m405.38,44.25c1.03-.31,2.92.08,2.8-2.05-.08-1.51-.98-2.84-2.58-2.84-1.54,0-2.58,1.05-2.59,2.77,0,1.42.56,2.29,2.37,2.12Z"/><path class="b" d="m404.86,53.58c2.36-.07,3.38-1.67,3.49-3.82.1-2.17-1.54-2.45-3.18-2.48-2.08-.04-2.9,1.16-2.84,3.12.04,1.71.45,3.23,2.53,3.17Z"/><path class="b" d="m409.59,37.27c1.64.04,2.46-.7,2.44-2.4-.02-1.84-.73-3.01-2.71-3.02-1.69,0-2.32,1.03-2.35,2.58-.03,1.78.76,2.8,2.61,2.83Z"/><path class="b" d="m409.51,59.78c.3-2.83-1.13-3.07-2.77-2.95-1.61.12-3.64.05-3.54,2.36.1,2.29,1.4,4.05,3.93,3.98,2.59-.07,2.08-2.4,2.37-3.39Z"/><path class="b" d="m379.19,63c1.71.32,2.65-.34,2.67-2.35.03-2.11-.75-3.17-2.95-3.24-1.94-.06-2.62.83-2.69,2.66-.07,2.05.66,3.14,2.97,2.93Z"/><path class="b" d="m379.78,53.62c1.53.05,2.39-.84,2.41-2.33.03-1.64-.97-2.39-2.55-2.46-1.43,0-2.22.67-2.24,2.16-.01,1.62.76,2.56,2.38,2.62Z"/><path class="b" d="m387.22,70.14c1.08,2.61,2.5,5.09,3.59,7.7,2.66,6.41,2.62,6.42,9.3,6.29,1.56-.07,3.13-.23,4.69-.2,2.3.03,2.92-1.12,1.85-2.93-1.63-2.74-2.29-5.82-3.5-8.7-3.29-7.8-5.97-15.76-6.24-24.34-.03-1.05-.41-1.65-1.58-1.7-4.62-.2-9.27,3.56-10.14,8.16-1.03,5.47-.05,10.68,2.03,15.72Z"/><path class="b" d="m383.41,46.03c1.61-.06,2.51-.76,2.49-2.57-.11-1.34-.53-2.55-2.34-2.46-1.54.07-2.65.79-2.54,2.44.09,1.36.55,2.66,2.39,2.59Z"/><path class="b" d="m201.1,150.48c-.64.47-1.32.98-1.99,1.49.04.06.08.11.12.16,1.39-1.22,2.08-1.8,1.88-1.65Z"/><path class="b" d="m434.4,5.03C197.26,5.03,4.34,199.51,4.34,438.57c0,90.29,27.38,176.92,79.12,250.45.15.23,3.87,5.8,18.63,21.8l1.65,1.79,99.96-74.3,118.83,93.86,165.09-144.53,269,134.61,1.38-1.29c17.73-16.63,32.36-39,32.95-39.91,48.08-71.7,73.49-155.55,73.49-242.48,0-239.06-192.92-433.54-430.04-433.54Zm354.3,674.52s-14.86,22.85-32.56,39.45l-268.94-134.57-164.76,144.24-118.69-93.75-99.67,74.08c-14.78-16.03-18.36-21.46-18.36-21.46C36.23,617.2,7.04,531.35,7.04,438.57,7.04,200.62,198.38,7.73,434.4,7.73s427.34,192.89,427.34,430.84c0,89.27-26.91,172.19-73.03,240.98Z"/><polygon class="b" points="585.45 364.1 585.5 364.03 585.48 364.02 585.45 364.1"/><polygon class="b" points="683.66 469.66 683.57 469.78 683.71 469.75 683.79 469.63 683.66 469.66"/><path class="b" d="m663.86,150.48c-.2-.15.49.43,1.88,1.65.04-.05.08-.1.12-.16-.67-.5-1.36-1.02-1.99-1.49Z"/></g></svg>