<?xml version="1.0" encoding="UTF-8"?><svg id="Capa_1" xmlns="http://www.w3.org/2000/svg" width="333.9" height="390" xmlns:xlink="http://www.w3.org/1999/xlink" viewBox="0 0 333.9 390"><defs><filter id="outer-glow-58" filterUnits="userSpaceOnUse"><feOffset dx="0" dy="0"/><feGaussianBlur result="blur" stdDeviation="19"/><feFlood flood-color="#fff" flood-opacity=".8"/><feComposite in2="blur" operator="in"/><feComposite in="SourceGraphic"/></filter></defs><text transform="translate(52.5 330.2)" style="fill:#fff; font-family:BloggerSans-Bold, &apos;Blogger Sans&apos;; font-size:30.5px; font-weight:700;"><tspan x="0" y="0" style="letter-spacing:0em;">E</tspan><tspan x="16.2" y="0" style="letter-spacing:0em;">S</tspan><tspan x="32.4" y="0" style="letter-spacing:0em;">T</tspan><tspan x="46.4" y="0" style="letter-spacing:0em;">A</tspan><tspan x="64.5" y="0">D</tspan><tspan x="82.6" y="0" style="letter-spacing:0em;">O</tspan><tspan x="101.3" y="0">S U</tspan><tspan x="145.1" y="0" style="letter-spacing:0em;">N</tspan><tspan x="164.5" y="0">ID</tspan><tspan x="190.7" y="0" style="letter-spacing:0em;">O</tspan><tspan x="209.4" y="0">S</tspan><tspan x="84.6" y="36.5">FI</tspan><tspan x="108.4" y="36.5" style="letter-spacing:0em;">F</tspan><tspan x="122.9" y="36.5" style="letter-spacing:0em;">A</tspan></text><g style="filter:url(#outer-glow-58);"><path d="m255.7,44.7v-7H75.3l-.3,6.6c-.4,7.4-.3,14.9-.2,22.1,0,2.9,0,5.9,0,8.9v4.5c0,17.7,0,35.4,0,53.1,0,19.2,0,38.4,0,57.7,0,26.6,18.2,39.9,32.7,50.5,13.4,9.8,27.1,19.6,40.4,29,4.4,3.1,8.7,6.2,13.1,9.3,1.2.9,2.7,1.3,4.3,1.3,3.2,0,5.6-.8,29.1-18.8,1.5-1.1,2.9-2.2,3.3-2.5,10.5-7.5,21-15.2,31.2-23,11.6-8.9,18.6-17.3,22.8-27.2,4.1-9.9,4.1-18.5,4.1-22.1,0-3.8,0-8.5,0-14.1,0-26.7.1-71.3,0-128.4Z" style="fill:#252d47; stroke-width:0px;"/><path d="m82,44.7h166.7c.3,69.3,0,121.2,0,142.4,0,3.4,0,10.9-3.6,19.5-4,9.5-11.1,17.1-20.6,24.3-10.2,7.8-20.5,15.4-31,22.9-2.4,1.7-26.9,21.1-28.5,19.9-17.8-12.7-35.7-25.3-53.4-38.2-16.2-11.9-29.8-23-29.8-44.9,0-19.2,0-38.4,0-57.6,0-19.2,0-38.4,0-57.6,0-10.2-.4-20.5.2-30.6Z" style="fill:#fbfafa; stroke-width:0px;"/><path d="m171.6,105.4c-6.3-2.9-12.6-6-19-8.7-5.2-2.2-7.4-5.8-7.3-11.3.1-7.4,0-14.8,0-22.2,0-1.3-.2-4,1.6-5.7.8-.8,1.7-1.1,2.3-1.2,10.7,0,21.4,0,32.1,0,.4.1,1.1.4,1.8,1.1,1,1,1.3,2.3,1.3,2.7v23.5c-4.2-1.9-8.5-3.8-12.7-5.7v-9.3h-12.8v16.2c5.9,2.8,12.1,5.9,18.5,8.6,4.2,1.7,5,3.3,5.7,4.4,1.4,2.4,1.4,4.9,1.3,6.4v20.9c0,1.2,0,3.4-1.2,5.5-1.2,2.1-3,3-4.4,3.7-4.5,2.1-9.2,4.2-13.8,6.3-4.8-2.2-9.6-4.3-14.3-6.5-1.5-.7-3.5-2-4.7-4.4-.6-1.1-.8-2.2-.9-2.9v-19.7c4.4,2,8.8,4,13.2,5.9v11.1c2.5,1.1,4.6,2,6.7,2.9,2.2-1,4.3-2,6.4-3v-18.7Z" style="fill:#252d47; stroke-width:0px;"/><path d="m237.2,56.3v43.3c.2,6-2.2,8.4-3,9.1-.9.8-1.9,1.6-4.4,2.5-1.6.6-3.2,1.4-5.3,2.3v-14.3c-4.7,2.1-8.6,4-13,6v14.4c-4.5,2.1-9.1,4.1-13.6,6.2,0-20.2,0-40.5,0-60.7,0-.9.5-4.2,3.2-6.6,1.2-1.1,2.5-1.7,3.4-1.9,10.9,0,21.7,0,32.6,0Zm-25.7,34.3c4.6-2.1,8.7-4,12.4-5.7v-16.2h-12.4v21.9Z" style="fill:#252d47; stroke-width:0px;"/><path d="m132.1,56.3c0,23,0,46,0,69.1-11.5-5.3-22.9-10.7-34.4-16-.7-.3-2.1-1-3.3-2.6-1.4-1.9-1.5-3.8-1.5-4.5,0-15.3,0-30.6,0-45.9,4.4,0,8.8,0,13.2,0,0,14.2,0,28.4,0,42.7,4.3,2,8.7,4.1,13,6.1v-48.8c4.3,0,8.7,0,13,0Z" style="fill:#252d47; stroke-width:0px;"/><path d="m170.5,256.1c-1.8,1.3-3.4,2.4-5.2,3.7-1.9-1.4-3.8-2.7-5.6-4,0-34.6,0-69.2,0-103.9,1.9.9,3.7,1.7,5.6,2.6,1.7-.8,3.4-1.6,5.1-2.4,0,34.7,0,69.3,0,104Z" style="fill:#bb2634; stroke-width:0px;"/><path d="m182.2,247.6c0-33.6,0-67.2,0-100.8,3.6-1.7,7.2-3.3,10.8-5v98.1c-3.6,2.6-7.2,5.1-10.7,7.7Z" style="fill:#bb2634; stroke-width:0px;"/><path d="m215.5,223.9c-3.6,2.5-7.2,5-10.8,7.5,0-31.6,0-63.3,0-94.9,3.6-1.7,7.2-3.3,10.8-5v92.4Z" style="fill:#bb2634; stroke-width:0px;"/><path d="m225,215.7c.6-.8,1.3-2.2,1.4-4,0-.5,0-.9,0-1.3v-83.9c3.6-1.7,7.1-3.3,10.7-5v72c.2,2,.6,9.1-4.3,15.6-2.7,3.6-5.9,5.6-7.9,6.5Z" style="fill:#bb2634; stroke-width:0px;"/><path d="m148.2,247.6c0-33.6,0-67.2,0-100.8-3.6-1.7-7.2-3.3-10.8-5,0,32.7,0,65.4,0,98.1,3.6,2.6,7.2,5.1,10.7,7.7Z" style="fill:#bb2634; stroke-width:0px;"/><path d="m114.9,223.9c3.6,2.5,7.2,5,10.8,7.5,0-31.6,0-63.3,0-94.9-3.6-1.7-7.2-3.3-10.8-5,0,30.8,0,61.6,0,92.4Z" style="fill:#bb2634; stroke-width:0px;"/><path d="m105.4,215.7c-.6-.8-1.3-2.2-1.4-4,0-.5,0-.9,0-1.3,0-28,0-55.9,0-83.9-3.6-1.7-7.1-3.3-10.7-5,0,24,0,48,0,72-.2,2-.6,9.1,4.3,15.6,2.7,3.6,5.9,5.6,7.9,6.5Z" style="fill:#bb2634; stroke-width:0px;"/></g></svg>